<svg width="40" height="40" viewBox="0 0 40 40" fill="none" xmlns="http://www.w3.org/2000/svg">
<rect width="40" height="40" rx="5" fill="#FCFCFC"/>
<path d="M9.12914 27.9399H16.3691C16.6491 27.9399 16.8791 27.7099 16.8791 27.4299C16.8791 27.1499 16.6491 26.9199 16.3691 26.9199H9.12914C8.84914 26.9199 8.61914 27.1499 8.61914 27.4299C8.61914 27.7099 8.84914 27.9399 9.12914 27.9399Z" fill="#393939"/>
<path d="M18.1891 22.51C18.4691 22.51 18.6991 22.28 18.6991 22C18.6991 21.72 18.4691 21.49 18.1891 21.49H9.12914C8.84914 21.49 8.61914 21.72 8.61914 22C8.61914 22.28 8.84914 22.51 9.12914 22.51H18.1891Z" fill="#393939"/>
<path d="M23.6191 16.0601H9.12914C8.84914 16.0601 8.61914 16.2901 8.61914 16.5701C8.61914 16.8501 8.84914 17.0801 9.12914 17.0801H23.6191C23.8991 17.0801 24.1291 16.8501 24.1291 16.5701C24.1291 16.2901 23.8991 16.0601 23.6191 16.0601Z" fill="#393939"/>
<path d="M32.5102 15.68C32.0602 15.23 31.4602 15 30.8702 15C30.2802 15 29.6802 15.23 29.2302 15.68L19.6402 25.27C19.5402 25.37 19.4902 25.49 19.4902 25.63V29.25C19.4902 29.53 19.7202 29.76 20.0002 29.76H23.6202C23.7602 29.76 23.8902 29.71 23.9802 29.61L33.5602 20.02C34.0002 19.58 34.2402 19 34.2402 18.38C34.2402 17.76 34.0002 17.18 33.5602 16.74L32.5002 15.68H32.5102ZM23.4102 28.74H20.5102V25.84L28.1502 18.2L31.0502 21.1L23.4102 28.74ZM32.8502 19.3L31.7702 20.38L28.8702 17.48L29.9502 16.41C30.1902 16.16 30.5202 16.03 30.8702 16.03C31.1902 16.03 31.5002 16.15 31.7402 16.36L31.9102 16.44V16.52L32.8602 17.46C33.3702 17.97 33.3702 18.79 32.8602 19.3H32.8502Z" fill="#393939"/>
<path d="M30.87 7H9.13C6.85 7 5 8.85 5 11.13V29.24C5 31.52 6.85 33.37 9.13 33.37H30.86C33.14 33.37 34.99 31.52 34.99 29.24V21.75C34.99 21.47 34.76 21.24 34.48 21.24C34.2 21.24 33.97 21.47 33.97 21.75V29.24C33.97 30.96 32.57 32.35 30.86 32.35H9.13C7.41 32.35 6.02 30.95 6.02 29.24V11.64H33.98V15.1C33.98 15.38 34.21 15.61 34.49 15.61C34.77 15.61 35 15.38 35 15.1V11.13C35 8.85 33.15 7 30.87 7ZM33.98 10.62H6.02L6.21 10.09C6.65 8.85 7.82 8.02 9.13 8.02H30.87C32.18 8.02 33.36 8.86 33.79 10.09L33.98 10.62Z" fill="#393939"/>
</svg>
