<svg width="23" height="30" viewBox="0 0 23 30" fill="none" xmlns="http://www.w3.org/2000/svg">
<path d="M9.68558 1.17652C9.35087 0.466549 8.63076 -4.11421e-07 7.84979 -4.45558e-07L6.24728 -5.15606e-07C6.09514 -5.22256e-07 5.94301 0.0608546 5.85172 0.182564C5.78073 0.273846 5.74016 0.375266 5.74016 0.55783C5.74016 0.578115 5.74016 0.588261 5.74016 0.608546L6.7544 6.27818C6.22699 6.31875 5.38517 6.37961 4.45206 6.42018L3.63052 4.63511C3.42767 4.18884 2.98141 3.8947 2.48443 3.8947L0.526928 3.8947C0.37479 3.8947 0.232797 3.95556 0.131372 4.06713C0.0502318 4.15841 0.00966435 4.26998 0.00966434 4.45254L0.00966434 4.48297L0.577638 8.61095L-0.000481211 12.7896L-0.000481214 12.8606C-0.000481219 12.9824 0.0400919 13.1041 0.121231 13.2055C0.222656 13.3171 0.36465 13.3881 0.516786 13.3881L2.47428 13.3881C2.97126 13.3881 3.41753 13.1041 3.62038 12.6578L4.44192 10.8727C5.37503 10.9234 6.21685 10.9843 6.74426 11.0249L5.69959 16.7858C5.69959 16.9075 5.74016 17.0292 5.82129 17.1205C5.92272 17.2422 6.06471 17.3132 6.22699 17.3132L7.8295 17.3132C8.61047 17.3132 9.34073 16.8568 9.66529 16.1468L12.0691 11.0147L14.6148 11.0147C14.6148 11.0147 16.339 11.0857 17.546 9.87876C17.8705 9.5542 18.043 9.12822 18.043 8.68195C18.043 8.23568 17.8705 7.81984 17.546 7.49528C16.3593 6.28833 14.7061 6.33904 14.6452 6.33904L12.0792 6.33904L9.69572 1.18667L9.68558 1.17652ZM11.2678 7.05916C11.3489 7.24172 11.5416 7.36343 11.7445 7.36343L14.6655 7.36343C14.6655 7.36343 15.9435 7.333 16.8056 8.20525C16.9273 8.32696 16.9983 8.48924 16.9983 8.66167C16.9983 8.83409 16.9273 8.99636 16.8056 9.11807C15.9435 9.99033 14.6655 9.94976 14.6452 9.94976L11.7445 9.94976C11.5416 9.94976 11.3591 10.0613 11.2678 10.2439L8.72204 15.6803C8.55976 16.0251 8.21492 16.2482 7.8295 16.2482L6.84568 16.2482L7.88022 10.538C7.88022 10.4265 7.83965 10.3047 7.76865 10.2135C7.67737 10.0918 7.53537 10.0208 7.38324 10.0208L7.14996 10.0005C6.64284 9.9599 5.46631 9.85847 4.14779 9.80776C3.9348 9.80776 3.74209 9.91933 3.65081 10.112L2.67713 12.2217C2.6467 12.3028 2.56556 12.3535 2.48443 12.3434L1.12533 12.3434L1.63246 8.71237L1.63246 8.64138L1.63246 8.57038L1.13548 4.93938L2.49457 4.93938C2.57571 4.93938 2.65685 4.99009 2.69742 5.07123L3.66095 7.18087C3.75223 7.37357 3.94494 7.49528 4.15793 7.48514C5.42574 7.43442 6.57184 7.34314 7.1601 7.30257L7.38324 7.28229C7.53537 7.28229 7.68751 7.21129 7.78893 7.09973C7.85993 7.01859 7.9005 6.90702 7.9005 6.72445C7.9005 6.70417 7.9005 6.69403 7.9005 6.67374L6.8964 1.04467L7.88022 1.04467C8.25549 1.04467 8.61047 1.2678 8.77275 1.61265L11.2982 7.05916L11.2678 7.05916Z" fill="#393939"/>
<path d="M12.6738 28.8235C13.0085 29.5335 13.7286 30 14.5096 30L16.1121 30C16.2642 30 16.4164 29.9391 16.5077 29.8174C16.5786 29.7262 16.6192 29.6247 16.6192 29.4422C16.6192 29.4219 16.6192 29.4117 16.6192 29.3915L15.605 23.7218C16.1324 23.6813 16.9742 23.6204 17.9073 23.5798L18.7289 25.3649C18.9317 25.8112 19.378 26.1053 19.8749 26.1053L21.8324 26.1053C21.9846 26.1053 22.1266 26.0444 22.228 25.9329C22.3091 25.8416 22.3497 25.73 22.3497 25.5475L22.3497 25.517L21.7817 21.3891L22.3599 17.2104L22.3599 17.1394C22.3599 17.0176 22.3193 16.8959 22.2381 16.7945C22.1367 16.6829 21.9947 16.612 21.8426 16.612L19.8851 16.612C19.3881 16.6119 18.9418 16.8959 18.739 17.3422L17.9175 19.1273C16.9843 19.0766 16.1425 19.0157 15.6151 18.9751L16.6598 13.2142C16.6598 13.0925 16.6192 12.9708 16.5381 12.8795C16.4367 12.7578 16.2947 12.6868 16.1324 12.6868L14.5299 12.6868C13.7489 12.6868 13.0186 13.1432 12.6941 13.8532L10.2903 18.9853L7.74456 18.9853C7.74456 18.9853 6.02034 18.9143 4.81339 20.1212C4.48883 20.4458 4.31641 20.8718 4.31641 21.3181C4.31641 21.7643 4.48883 22.1802 4.81339 22.5047C6.00006 23.7117 7.65328 23.661 7.71413 23.661L10.2802 23.661L12.6637 28.8133L12.6738 28.8235ZM11.0916 22.9408C11.0104 22.7583 10.8177 22.6366 10.6149 22.6366L7.69385 22.6366C7.69385 22.6366 6.4159 22.667 5.55379 21.7947C5.43208 21.673 5.36108 21.5108 5.36108 21.3383C5.36108 21.1659 5.43208 21.0036 5.55379 20.8819C6.4159 20.0097 7.69385 20.0502 7.71413 20.0502L10.6149 20.0502C10.8177 20.0502 11.0003 19.9387 11.0916 19.7561L13.6373 14.3198C13.7996 13.9749 14.1445 13.7518 14.5299 13.7518L15.5137 13.7518L14.4792 19.462C14.4792 19.5735 14.5197 19.6953 14.5907 19.7865C14.682 19.9082 14.824 19.9792 14.9761 19.9792L15.2094 19.9995C15.7165 20.0401 16.8931 20.1415 18.2116 20.1922C18.4246 20.1922 18.6173 20.0807 18.7086 19.888L19.6822 17.7783C19.7127 17.6972 19.7938 17.6465 19.875 17.6566L21.234 17.6566L20.7269 21.2876L20.7269 21.3586L20.7269 21.4296L21.2239 25.0606L19.8648 25.0606C19.7837 25.0606 19.7025 25.0099 19.662 24.9288L18.6984 22.8191C18.6071 22.6264 18.4144 22.5047 18.2014 22.5149C16.9336 22.5656 15.7875 22.6569 15.1993 22.6974L14.9761 22.7177C14.824 22.7177 14.6719 22.7887 14.5704 22.9003C14.4994 22.9814 14.4589 23.093 14.4589 23.2755C14.4589 23.2958 14.4589 23.306 14.4589 23.3263L15.463 28.9553L14.4792 28.9553C14.1039 28.9553 13.7489 28.7322 13.5866 28.3874L11.0611 22.9408L11.0916 22.9408Z" fill="#393939"/>
</svg>
