<svg width="40" height="40" viewBox="0 0 40 40" fill="none" xmlns="http://www.w3.org/2000/svg">
<rect width="40" height="40" rx="5" fill="#FCFCFC"/>
<path fill-rule="evenodd" clip-rule="evenodd" d="M33.12 7.78C31.97 6.63 30.45 6 28.82 6H12.08C10.46 6 8.93 6.63 7.78 7.78C6.63 8.93 6 10.45 6 12.08V28.82C6 30.44 6.63 31.97 7.78 33.12C8.93 34.27 10.45 34.9 12.08 34.9H28.82C30.44 34.9 31.97 34.27 33.12 33.12C34.27 31.97 34.9 30.45 34.9 28.82V12.08C34.9 10.46 34.27 8.93 33.12 7.78ZM33.91 28.82C33.91 30.18 33.38 31.46 32.42 32.42C31.46 33.38 30.18 33.91 28.83 33.91H12.08C10.72 33.91 9.44 33.38 8.48 32.42C7.52 31.46 6.99 30.18 6.99 28.83V12.08C6.99 10.74 7.53 9.43 8.48 8.48C9.44 7.52 10.72 6.99 12.07 6.99H28.81C30.17 6.99 31.45 7.52 32.41 8.48C33.36 9.42 33.9 10.73 33.9 12.08V28.82H33.91Z" fill="#393939"/>
<path fill-rule="evenodd" clip-rule="evenodd" d="M22.2797 14.9599C22.2297 14.9399 22.1797 14.9299 22.1197 14.9299C21.9097 14.9299 21.7197 15.0599 21.6497 15.2699L18.2997 25.3199C18.2097 25.5799 18.3597 25.8599 18.6197 25.9499C18.8797 26.0299 19.1597 25.8899 19.2497 25.6299L22.5997 15.5799C22.6897 15.3199 22.5397 15.0399 22.2797 14.9499V14.9599Z" fill="#393939"/>
<path fill-rule="evenodd" clip-rule="evenodd" d="M25.8209 16.7501C25.7309 16.6601 25.6009 16.6001 25.4709 16.6001C25.3409 16.6001 25.2109 16.6501 25.1209 16.7401C25.0309 16.8301 24.9709 16.9601 24.9709 17.0901C24.9709 17.2201 25.0209 17.3501 25.1109 17.4401L28.1109 20.4401L25.1109 23.4401C25.0209 23.5301 24.9609 23.6601 24.9609 23.7901C24.9609 23.9201 25.0109 24.0501 25.1009 24.1401C25.2909 24.3301 25.6209 24.3301 25.8009 24.1401L29.1509 20.7901C29.3409 20.6001 29.3409 20.2801 29.1509 20.0901L25.8009 16.7401L25.8209 16.7501Z" fill="#393939"/>
<path fill-rule="evenodd" clip-rule="evenodd" d="M15.9204 17.1001C15.9204 16.9701 15.8704 16.8401 15.7804 16.7501C15.6904 16.6601 15.5604 16.6001 15.4304 16.6001C15.3004 16.6001 15.1704 16.6501 15.0804 16.7401L11.7304 20.0901C11.5404 20.2801 11.5404 20.6001 11.7304 20.7901L15.0804 24.1401C15.2704 24.3301 15.5904 24.3301 15.7804 24.1401C15.8704 24.0501 15.9304 23.9201 15.9304 23.7901C15.9304 23.6601 15.8804 23.5301 15.7904 23.4401L12.7904 20.4401L15.7904 17.4401C15.8804 17.3501 15.9404 17.2201 15.9404 17.0901L15.9204 17.1001Z" fill="#393939"/>
</svg>
