<svg width="40" height="40" viewBox="0 0 40 40" fill="none" xmlns="http://www.w3.org/2000/svg">
<rect width="40" height="40" rx="5" fill="#FCFCFC"/>
<path d="M34.67 33.29H30.91V8.95C30.91 8.66 30.68 8.43 30.39 8.43H27.48V5.52C27.48 5.23 27.25 5 26.96 5H13.25C12.96 5 12.73 5.23 12.73 5.52V8.43H9.82C9.53 8.43 9.3 8.66 9.3 8.95V33.29H5.52C5.23 33.29 5 33.52 5 33.81C5 34.1 5.23 34.33 5.52 34.33H34.66C34.95 34.33 35.18 34.1 35.18 33.81C35.18 33.52 34.95 33.29 34.66 33.29H34.67ZM24.72 27.48V33.29H20.62V27.48H24.72ZM19.58 27.48V33.29H15.48V27.48H19.58ZM13.76 8.43V6.04H26.43V8.42H13.76V8.43ZM25.24 26.43H14.95C14.66 26.43 14.43 26.66 14.43 26.95V33.28H10.33V9.47H29.86V33.28H25.76V26.95C25.76 26.66 25.53 26.43 25.24 26.43Z" fill="#393939"/>
<path d="M18.2809 12.5H15.2109C14.9309 12.5 14.7109 12.72 14.7109 13V15.86C14.7109 16.14 14.9309 16.36 15.2109 16.36H18.2809C18.5609 16.36 18.7809 16.14 18.7809 15.86V13C18.7809 12.72 18.5609 12.5 18.2809 12.5ZM17.7709 13.51V15.35H15.7209V13.51H17.7709Z" fill="#393939"/>
<path d="M24.9802 12.5H21.9102C21.6302 12.5 21.4102 12.72 21.4102 13V15.86C21.4102 16.14 21.6302 16.36 21.9102 16.36H24.9802C25.2602 16.36 25.4802 16.14 25.4802 15.86V13C25.4802 12.72 25.2602 12.5 24.9802 12.5ZM24.4702 13.51V15.35H22.4202V13.51H24.4702Z" fill="#393939"/>
<path d="M18.2809 19.1899H15.2109C14.9309 19.1899 14.7109 19.4099 14.7109 19.6899V22.5499C14.7109 22.8299 14.9309 23.0499 15.2109 23.0499H18.2809C18.5609 23.0499 18.7809 22.8299 18.7809 22.5499V19.6899C18.7809 19.4099 18.5609 19.1899 18.2809 19.1899ZM17.7709 20.1999V22.0399H15.7209V20.1999H17.7709Z" fill="#393939"/>
<path d="M24.9802 19.1899H21.9102C21.6302 19.1899 21.4102 19.4099 21.4102 19.6899V22.5499C21.4102 22.8299 21.6302 23.0499 21.9102 23.0499H24.9802C25.2602 23.0499 25.4802 22.8299 25.4802 22.5499V19.6899C25.4802 19.4099 25.2602 19.1899 24.9802 19.1899ZM24.4702 20.1999V22.0399H22.4202V20.1999H24.4702Z" fill="#393939"/>
</svg>
