<svg width="40" height="40" viewBox="0 0 40 40" fill="none" xmlns="http://www.w3.org/2000/svg">
<rect width="40" height="40" rx="5" fill="#FCFCFC"/>
<path d="M24.2098 17.7C24.0198 17.51 23.6598 17.51 23.4698 17.7L21.5198 19.65L21.2598 19.54C20.0698 19.04 18.2198 17.19 17.7198 16L17.6098 15.74L19.5598 13.79C19.6598 13.69 19.7098 13.56 19.7098 13.42C19.7098 13.28 19.6598 13.15 19.5598 13.05L15.9098 9.4C15.7098 9.2 15.3698 9.2 15.1698 9.4L13.1798 11.39C12.3198 12.25 12.2298 13.74 12.9298 15.57C14.4598 19.56 19.1998 23.89 22.8598 24.67C23.2298 24.75 23.5798 24.79 23.9098 24.79C24.7198 24.79 25.3698 24.55 25.8498 24.06L27.8398 22.07C28.0398 21.87 28.0398 21.53 27.8398 21.33L24.1898 17.68L24.2098 17.7ZM16.8398 15.05C16.4798 15.41 16.5198 16.03 16.9598 16.82C17.7398 18.22 19.9498 20.45 21.3998 20.66C21.7498 20.71 22.0098 20.63 22.2098 20.43L23.8298 18.81L26.7398 21.72L25.1198 23.34C24.5798 23.88 23.4498 23.88 22.0598 23.34C18.8198 22.09 15.1698 18.44 13.9198 15.2C13.3798 13.8 13.3798 12.68 13.9198 12.13L15.5398 10.51L18.4498 13.42L16.8298 15.04L16.8398 15.05Z" fill="#393939"/>
<path d="M27.74 5H12.74C10.13 5 8 7.13 8 9.74V24.74C8 27.35 10.13 29.48 12.74 29.48H17.13L19.79 33.91C19.89 34.07 20.05 34.16 20.24 34.16C20.31 34.16 20.55 34.14 20.69 33.91L23.35 29.47H27.74C30.35 29.47 32.48 27.34 32.48 24.73V9.74C32.48 7.13 30.35 5 27.74 5ZM27.74 28.44H23.05C22.87 28.44 22.7 28.54 22.6 28.69L20.23 32.63L17.86 28.69C17.77 28.53 17.6 28.44 17.41 28.44H12.72C10.68 28.44 9.02 26.78 9.02 24.74V9.74C9.02 7.7 10.68 6.04 12.72 6.04H27.72C29.76 6.04 31.42 7.7 31.42 9.74V24.74C31.42 26.78 29.76 28.44 27.72 28.44H27.74Z" fill="#393939"/>
</svg>
