<svg width="25" height="30" viewBox="0 0 25 30" fill="none" xmlns="http://www.w3.org/2000/svg">
<path d="M12.4423 0C9.74233 0 7.52233 2.07 7.31233 4.69H5.68233C4.19233 4.69 3.10233 5.84 2.88233 7.41L0.022328 27.15C-0.197672 28.7 1.24233 30 2.83233 30H22.0323C23.6323 30 25.0623 28.7 24.8323 27.15L21.9823 7.41C21.7623 5.9 20.7123 4.69 19.1823 4.69H17.5723C17.3623 2.07 15.1423 0 12.4423 0ZM12.4423 0.94C14.6323 0.94 16.4323 2.58 16.6323 4.69H8.25233C8.46233 2.58 10.2523 0.94 12.4423 0.94ZM5.68233 5.63H19.1823C20.3023 5.63 20.9223 6.59 21.0623 7.54L23.9123 27.29C24.0523 28.27 23.0423 29.07 22.0323 29.07H2.83233C1.83233 29.07 0.812328 28.28 0.962328 27.29L3.81233 7.54C3.96233 6.5 4.63233 5.63 5.68233 5.63ZM16.6623 9.38C16.6623 11.68 14.7823 13.54 12.4523 13.54C10.1223 13.54 8.24233 11.68 8.24233 9.38C8.24233 8.76 7.30233 8.75 7.30233 9.38C7.30233 12.19 9.61233 14.48 12.4523 14.48C15.2923 14.48 17.6023 12.19 17.6023 9.38C17.6023 8.76 16.6723 8.76 16.6723 9.38H16.6623Z" fill="#393939"/>
</svg>
