<svg width="121" height="117" viewBox="0 0 121 117" fill="none" xmlns="http://www.w3.org/2000/svg">
<path d="M114.44 62.4C114 62.08 113.28 61.56 112.4 61C107.84 57.96 101.48 54.24 93.52 49.96L91.76 43.84C94.16 41.28 95.64 38.44 96.28 37C99.72 34.68 101.68 32.08 101.88 29.4C102.04 27.96 101.64 26.6 100.8 25.44C102.04 16.76 100.6 10.16 96.44 5.88002C91.04 0.360024 83.16 0.920024 81.68 1.08002C81.56 1.08002 81.44 1.08002 81.32 1.08002C71.48 1.08002 65.56 11.84 63.52 18.52C60.84 19.32 58.76 21.32 57.48 24.6C57.24 25.12 57.24 25.68 57.44 26.16C57.64 26.64 58 27.04 58.48 27.24C58.92 27.48 59.44 27.48 59.92 27.36C60.44 27.2 60.88 26.8 61.16 26.28C61.68 25.08 62.32 24.12 63 23.44C63 29 63.84 39.4 69.6 45.08C70.16 45.64 70.8 46.16 71.44 46.6L69.52 51.8L61.88 54.6C61.68 54.68 61.48 54.84 61.32 54.96C60.2 55.56 56.64 57.64 53.24 59.84C52.76 57.6 50.88 55.96 48.52 55.96H4.96C2.28 55.96 0 58.24 0 60.92V96.6C0 99.4 2.16 101.6 4.96 101.6H30C30.36 102.68 30.92 103.68 31.8 104.52C35.28 108 42.2 109.24 52.36 108.28H52.56C56.08 108.28 69.84 112.32 80.52 115.8C81.92 116.48 83.56 116.8 85.36 116.8C88.08 116.8 90.68 115.88 92.68 114.2C98.44 108.84 105.28 102.52 107.16 100.96C109.2 101.72 111.08 102.2 112.6 102.2H113.08C113.52 102.2 113.88 102.08 114.2 101.84C115.4 101.04 118.2 99.12 120.44 74.88C121.16 67.08 120.24 66.24 114.48 62.36L114.44 62.4ZM3.92 60.96C3.92 60.52 4.32 60 4.88 60H19.56V97.6H4.88C4.36 97.6 3.92 97.16 3.92 96.64V60.96ZM49.36 91.88L44.08 91.68C41.36 91.68 39.08 93.96 39.08 96.64C39.08 97 39.2 97.28 39.28 97.6H33.76V60H48.36C48.84 60 49.32 60.48 49.32 60.96V91.88H49.36ZM23.72 59.96H29.68V97.56H23.72V59.96ZM50.44 101.68C50.76 101.68 51.04 101.6 51.28 101.48C52.08 101.2 52.64 100.52 52.64 99.64C52.64 98.48 51.72 97.6 50.6 97.6H44.12C43.56 97.6 43.16 97.2 43.16 96.64C43.16 96.2 43.56 95.68 44.12 95.68L52.8 96.08L82.36 101C82.6 101.04 82.88 101.08 83.12 101.08C86.4 101.08 89.2 97.68 91.72 92.76C94.16 94.36 98.6 97.08 103.04 99.24C100.04 101.88 95.24 106.36 92.24 109.16C91 110.32 90 111.24 89.96 111.28H89.88C87.96 113.16 84.88 113.56 82.08 112.36C81.96 112.28 81.88 112.24 81.76 112.24C80.6 111.84 58.2 104.56 52.4 104.56C52.28 104.56 52.2 104.56 52.08 104.56H52C40.6 105.56 36.28 103.4 34.68 102C34.64 101.92 34.56 101.8 34.52 101.72H50.48L50.44 101.68ZM97.6 77.92L98.04 76.72C98.2 76.24 98.16 75.72 97.92 75.24C97.68 74.76 97.24 74.4 96.72 74.24C95.72 73.92 94.56 74.48 94.24 75.48L93.8 76.68C92.08 81.8 90.6 85.64 89.32 88.52C89.32 88.56 89.24 88.6 89.2 88.64C89.08 88.84 89 89.08 88.96 89.32C85.6 96.6 83.68 97.12 83.04 97L53.44 92.04V64.6C56.24 62.76 59.2 60.96 61.2 59.76L62.72 68C62.96 68.68 63.48 69.2 64.12 69.44C64.36 69.52 64.64 69.52 64.76 69.52C65.16 69.52 65.48 69.36 65.84 69.2C65.92 69.16 66.04 69.12 66.12 69.08L70.8 65L73.44 74.8C73.68 75.56 74.36 76.12 75.2 76.28H75.36C76.08 76.28 76.76 75.84 77.08 75.16L82.72 65.28L91.12 69.56C92.08 70.08 93.2 69.8 93.76 68.88L100.48 58.44C104.2 60.56 107.36 62.52 109.88 64.2C110.44 64.52 110.88 64.84 111.32 65.16C111.56 65.32 111.76 65.48 111.96 65.6C115.107 67.7334 116.467 70.6934 116.04 74.48C114.44 91.8 112.6 96.68 111.8 98.04C107.52 97.6 98.84 92.6 93.36 89.08C94.84 85.6 96.24 81.72 97.52 77.88L97.6 77.92ZM66.96 22.24C70.4 22.72 74.2 25.76 75.56 27.16C75.92 27.52 76.4 27.76 76.88 27.76H88.2L97.6 27.96C97.76 28.24 97.88 28.64 97.8 29.08C97.72 30.48 96.28 32.2 93.88 33.76C93.84 33.76 93.76 33.76 93.72 33.76C93.2 34 92.84 34.4 92.68 34.92C92.56 35.24 88.72 44.84 80.92 44.84C80.84 44.84 80.76 44.84 80.68 44.84C80.64 44.84 80.56 44.84 80.52 44.84C80.44 44.84 80.4 44.84 80.32 44.84C78.2 45 76.44 44.68 74.88 43.96C74.8 43.96 74.72 43.84 74.64 43.84C74.64 43.84 74.56 43.84 74.52 43.84C73.72 43.4 72.96 42.92 72.32 42.24C68.04 38.08 66.72 29.48 66.88 22.28L66.96 22.24ZM85.8 23.68H77.72C76.44 22.56 74.04 20.68 71.28 19.44C78.68 17.76 83.32 20.96 85.8 23.68ZM91 23.72C89.04 20.6 82.16 11.88 68.76 15.96C71.44 10.12 75.92 4.96002 81.32 4.96002C81.44 4.96002 81.56 4.96002 81.68 4.96002H82.04C83.76 4.80002 89.68 4.64002 93.56 8.60002C96.64 11.68 97.68 16.84 96.88 23.8L91 23.68V23.72ZM79.36 48.96C79.64 48.96 79.92 48.92 80.2 48.88C80.4 48.88 80.56 48.84 80.72 48.84H80.92C83.84 48.84 86.32 47.96 88.36 46.64L89.68 51.2L80.52 61.36C80.52 61.36 80.4 61.52 80.36 61.6C80.36 61.6 80.36 61.68 80.32 61.72L76.2 69.04L74.08 61.48C74.08 61.16 74 60.84 73.88 60.52L73.08 53.72L75.12 48.4C76.44 48.8 77.84 49.04 79.4 49.04L79.36 48.96ZM91.56 65.24L85.32 62.04L92.56 54.04C94.12 54.88 95.64 55.72 97.08 56.52L91.56 65.24ZM69.8 60.52L66.16 63.68L64.96 57.84L69.28 56.24L69.8 60.52Z" fill="#393939"/>
</svg>
