<svg width="29" height="29" viewBox="0 0 29 29" fill="none" xmlns="http://www.w3.org/2000/svg">
<path d="M26.6496 6.87988C22.5796 0.179883 13.7396 -2.00012 6.9296 2.00988C3.6796 3.92988 1.3696 7.02988 0.439601 10.7399C-0.500399 14.4699 0.079601 18.3299 2.0596 21.5999L2.1896 21.8099L1.1196 27.8899C1.1196 28.1699 1.1896 28.3899 1.2896 28.4499C1.5096 28.5899 1.6796 28.6499 2.0196 28.5999L7.0096 26.5299L7.2896 26.6999C11.6296 29.3099 17.3196 29.2599 21.7796 26.5799C28.5596 22.4699 30.7496 13.6299 26.6496 6.86988V6.87988ZM17.3196 27.3799C16.3296 27.5999 15.3396 27.7099 14.3496 27.7099C11.8396 27.7099 9.3596 26.9999 7.1796 25.6099L7.0696 25.5199C7.0696 25.5199 6.9896 25.4799 6.9496 25.4799H6.4996L2.1896 27.2599L3.1296 21.6399C3.1296 21.6399 3.0896 21.5599 3.0096 21.4099C0.229601 17.0799 0.229601 11.3999 3.0396 7.00988C6.9496 0.849884 15.2496 -0.960117 21.5296 2.98988C24.5296 4.86988 26.6096 7.84988 27.3896 11.3699C28.1696 14.8799 27.5596 18.4699 25.6696 21.4799C23.7796 24.4999 20.8096 26.5999 17.3196 27.3799Z" fill="#393939"/>
</svg>
