<svg width="31" height="26" viewBox="0 0 31 26" fill="none" xmlns="http://www.w3.org/2000/svg">
<path d="M29.65 23.59C28.75 23.56 27.83 23.76 27.02 24.15C25.63 24.77 24.05 24.79 22.65 24.19C24.8 21.3 26.98 16.16 26.75 11.6C26.75 11.4 26.62 11.23 26.43 11.16L22.35 9.56V5.12C22.35 4.33 21.7 3.68 20.91 3.68H17.12V0.5C17.12 0.22 16.89 0 16.62 0H13.53C13.25 0 13.03 0.23 13.03 0.5V3.67H9.24C8.45 3.67 7.8 4.32 7.8 5.11V9.55L3.72 11.15C3.54 11.22 3.41 11.4 3.4 11.59C3.17 16.15 5.35 21.3 7.5 24.19C6.87 24.48 6.17 24.63 5.47 24.63C5.43 24.63 5.39 24.63 5.35 24.63C4.58 24.65 3.82 24.48 3.13 24.15C2.35 23.78 1.49 23.58 0.64 23.58C0.59 23.58 0.55 23.58 0.5 23.58C0.22 23.58 0 23.81 0 24.08C0 24.35 0.23 24.58 0.51 24.58C1.27 24.56 2.04 24.72 2.73 25.06C3.51 25.43 4.36 25.62 5.22 25.62C5.27 25.62 5.31 25.62 5.36 25.62C6.27 25.64 7.18 25.45 7.99 25.06C8.13 24.99 8.28 24.93 8.42 24.88C8.46 24.88 8.49 24.86 8.52 24.84C9.07 24.65 9.64 24.57 10.22 24.58C10.99 24.56 11.75 24.72 12.45 25.06C13.22 25.43 14.08 25.62 14.94 25.62C15.04 25.62 15.13 25.62 15.22 25.62C16.08 25.62 16.93 25.43 17.71 25.06C18.36 24.75 19.09 24.58 19.81 24.58C19.85 24.58 19.89 24.58 19.93 24.58C20.51 24.57 21.07 24.65 21.61 24.83C21.65 24.85 21.7 24.87 21.73 24.87C21.88 24.93 22.02 24.99 22.16 25.05C22.98 25.44 23.88 25.63 24.79 25.61C25.7 25.63 26.6 25.44 27.42 25.05C28.08 24.74 28.8 24.57 29.52 24.57C29.56 24.57 29.6 24.57 29.64 24.57C29.92 24.57 30.14 24.34 30.14 24.07C30.14 23.8 29.91 23.57 29.64 23.57L29.65 23.59ZM14.03 3.68V1.01H16.11V3.68H14.03ZM15.58 10.8V8L25.76 11.98C25.78 12.82 25.71 13.72 25.56 14.67L15.58 10.8ZM25.36 15.67C24.71 18.59 23.3 21.71 21.67 23.82C21.1 23.66 20.52 23.59 19.93 23.59C19.02 23.57 18.12 23.76 17.3 24.15C16.76 24.41 16.18 24.57 15.58 24.61V11.86L25.36 15.65V15.67ZM14.98 6.76C14.98 6.76 14.95 6.76 14.93 6.77L8.81 9.16V5.11C8.81 4.87 9 4.68 9.24 4.68H20.91C21.15 4.68 21.34 4.87 21.34 5.11V9.16L15.28 6.79C15.28 6.79 15.27 6.79 15.26 6.79L15.21 6.77C15.21 6.77 15.18 6.77 15.16 6.76C15.1 6.76 15.05 6.75 14.98 6.76ZM14.57 11.88V24.63C13.97 24.58 13.39 24.43 12.84 24.16C12.06 23.79 11.2 23.59 10.34 23.59C10.3 23.59 10.25 23.59 10.21 23.59C9.62 23.58 9.04 23.65 8.47 23.82C6.83 21.71 5.43 18.59 4.78 15.67L14.56 11.88H14.57ZM4.39 11.98L14.57 8V10.8L4.59 14.67C4.44 13.73 4.37 12.83 4.39 11.98Z" fill="#393939"/>
</svg>
