<svg width="30" height="30" viewBox="0 0 30 30" fill="none" xmlns="http://www.w3.org/2000/svg">
<path d="M14.61 0C6.55 0 0 6.55 0 14.61C0 22.67 6.55 29.24 14.61 29.24C22.67 29.24 29.24 22.69 29.24 14.61C29.24 6.53 22.69 0 14.61 0ZM17.34 1.19L17.55 1.23C20.89 1.96 23.82 3.91 25.8 6.71L26.54 7.76L25.35 7.28C24.77 7.04 24.29 6.98 23.94 7.09C22.03 7.69 21.24 8.19 21.24 9.89C21.24 10.41 21.36 10.82 21.47 11.17C21.66 11.83 21.77 12.28 21.29 13.23C20.6 14.61 20.58 15.51 20.84 16.68C20.53 16.07 19.89 15.65 19.16 15.65H14.06L14.04 15.51V15.45C13.96 14.95 13.64 14.54 13.17 14.36C13 14.29 12.83 14.26 12.66 14.26C12.35 14.26 12.04 14.37 11.79 14.59L11.43 14.89C10.9 14.26 10.42 13.83 9.83 13.57C9.91 13.59 10 13.6 10.08 13.6H15.18L15.21 13.79C15.21 13.89 15.25 13.99 15.28 14.08C15.41 14.43 15.66 14.7 15.98 14.85C16.45 15.08 17.04 15.01 17.45 14.67L20.55 12.09C20.86 11.82 21.04 11.44 21.04 11.03C21.04 10.62 20.87 10.27 20.57 10L17.45 7.41C17.2 7.19 16.89 7.08 16.58 7.08C16.41 7.08 16.24 7.11 16.07 7.18C15.66 7.34 15.36 7.67 15.25 8.09C15.19 7.79 15.14 7.45 15.08 7.04C14.9 5.94 14.95 3.73 17.21 1.34L17.34 1.19ZM13.1 20.79C13.1 20.97 13 21.11 12.86 21.18C12.8 21.21 12.73 21.22 12.67 21.22C12.57 21.22 12.47 21.19 12.4 21.13L9.26001 18.52C9.19001 18.43 9.15001 18.33 9.15001 18.22C9.15001 18.09 9.21 17.97 9.31 17.89L11.36 16.18L12.09 15.57L12.4 15.31C12.53 15.2 12.7 15.17 12.86 15.25C13 15.31 13.1 15.47 13.1 15.63V16.12C13.1 16.38 13.31 16.59 13.57 16.59H19.16C19.67 16.59 20.09 17.01 20.09 17.51V18.92C20.09 19.43 19.67 19.84 19.16 19.84H13.57C13.31 19.84 13.1 20.06 13.1 20.32V20.79ZM15.47 9.41H15.67C15.93 9.41 16.14 9.2 16.14 8.94V8.45C16.14 8.29 16.24 8.13 16.38 8.07C16.54 7.99 16.71 8.02 16.84 8.13L19.93 10.71C20.03 10.79 20.09 10.91 20.09 11.04C20.09 11.15 20.05 11.25 19.98 11.33L16.84 13.95C16.77 14.01 16.67 14.04 16.57 14.04C16.51 14.04 16.44 14.03 16.38 14C16.24 13.93 16.14 13.79 16.14 13.61V13.14C16.14 12.88 15.93 12.66 15.67 12.66H10.08C9.57 12.66 9.15001 12.25 9.15001 11.74V10.33C9.15001 9.83 9.57 9.41 10.08 9.41H15.47ZM1.65001 10.22C3.53001 4.65 8.76 0.9 14.61 0.9C14.88 0.9 15.14 0.92 15.39 0.94L16.24 1L15.82 1.55C13.98 3.94 14 6.1 14.16 7.19C14.24 7.71 14.33 8.13 14.4 8.47H10.08C9.05 8.47 8.2 9.3 8.2 10.33V11.74C8.2 12.47 8.63001 13.11 9.26001 13.4C8.88001 13.31 8.44 13.29 7.92 13.32C7.6 13.34 7.28 13.4 6.95 13.45C6.19 13.58 5.47 13.7 4.83 13.38C4.36 13.14 3.88001 12.61 3.40001 12.09C2.94001 11.58 2.40001 11 1.82001 10.67L1.54001 10.52L1.65001 10.22ZM2.17 20.38L2.03 20.04C1.28 18.31 0.910004 16.5 0.910004 14.61C0.910004 13.74 0.999998 12.85 1.17 11.97L1.29001 11.35L1.78 11.76C2.09 12.02 2.4 12.36 2.73 12.71C3.27 13.29 3.8 13.88 4.41 14.19C5.34 14.66 6.22 14.51 7.09 14.36C7.4 14.3 7.7 14.26 7.98 14.24C9.25 14.16 9.81 14.4 10.72 15.48L8.67 17.18C8.37 17.45 8.2 17.82 8.2 18.21C8.2 18.62 8.38 19 8.69 19.27L10.85 21.07C10.29 20.85 9.64001 20.86 9.04001 20.88C8.11001 20.88 7.23 20.88 6.72 20.23C6.05 19.41 4.65 19.41 2.52 20.24L2.17 20.38ZM14.84 28.31C14.72 28.32 14.66 28.32 14.61 28.32C9.8 28.32 5.29 25.73 2.83 21.57L2.59 21.19L3.02 21.02C4.53 20.45 5.65 20.38 6 20.8C6.8 21.81 8 21.8 9.05 21.78C9.82 21.79 10.42 21.78 10.8 22.06C11.28 22.44 11.9 22.61 12.42 22.78C13.41 23.09 14.03 23.31 14.16 24.13C14.27 24.72 14.57 26.26 15.2 27.79L15.4 28.3H14.84V28.31ZM23.57 24.99C21.6 26.68 19.22 27.78 16.65 28.16L16.38 28.21L16.26 27.95C15.73 26.84 15.3 25.39 15.08 23.99C14.88 22.81 14.01 22.36 13.18 22.07C13.21 22.06 13.24 22.05 13.26 22.04C13.67 21.85 13.96 21.46 14.03 20.98L14.06 20.79H19.16C20.19 20.79 21.04 19.95 21.04 18.93V17.52C21.04 17.52 21.04 17.47 21.03 17.44C21.09 17.65 21.15 17.87 21.22 18.11L21.27 18.29C21.4 18.76 21.77 19.2 22.16 19.66C22.63 20.2 23.09 20.74 23.35 21.45C23.54 21.95 23.55 22.6 23.58 23.24C23.58 23.71 23.6 24.2 23.69 24.64L23.73 24.84L23.57 24.99ZM24.51 24.15L24.48 23.16C24.47 22.53 24.46 21.76 24.22 21.14C23.9 20.27 23.33 19.6 22.86 19.07C22.47 18.6 22.22 18.3 22.15 18.04L22.09 17.86C21.55 15.98 21.34 15.21 22.11 13.65C22.78 12.33 22.54 11.58 22.34 10.92C22.26 10.6 22.16 10.29 22.16 9.9C22.16 8.87 22.36 8.54 24.2 7.98C24.4 7.91 25.13 7.92 27.28 9.54L27.36 9.6L27.4 9.7C28.02 11.3 28.33 12.95 28.33 14.62C28.33 17.82 27.2 20.93 25.15 23.39L24.51 24.15Z" fill="#393939"/>
</svg>
