<svg width="29" height="30" viewBox="0 0 29 30" fill="none" xmlns="http://www.w3.org/2000/svg">
<path d="M28.03 5.65L14.37 0.04C14.31 0.01 14.24 0 14.17 0C14.1 0 14.04 0.01 13.97 0.04L0.32 5.65C0.12 5.73 0 5.92 0 6.12V23.88C0 24.09 0.12 24.26 0.32 24.34L13.98 29.95C14.1 30 14.24 30 14.36 29.95L14.75 29.8C15.14 29.65 15.9 29.33 17.45 28.7L28.03 24.35C28.23 24.27 28.35 24.09 28.35 23.89V6.12C28.35 5.91 28.23 5.73 28.03 5.65ZM14.18 1.05L18.73 2.92L6.66 8.18L1.73 6.16L14.18 1.05ZM13.67 28.74L1.01 23.55V6.95L6.29 9.12V14.47C6.29 14.75 6.52 14.98 6.78 14.98C7.04 14.98 7.29 14.75 7.29 14.47V9.54L13.67 12.16V28.75V28.74ZM14.18 11.26L7.95 8.7L20.02 3.43L26.62 6.14L14.18 11.25V11.26ZM27.35 23.54L14.69 28.74V12.16L27.35 6.95V23.55V23.54Z" fill="#393939"/>
</svg>
