<svg width="40" height="40" viewBox="0 0 40 40" fill="none" xmlns="http://www.w3.org/2000/svg">
<rect width="40" height="40" rx="5" fill="#FCFCFC"/>
<path d="M15.9201 20.0901H12.6101C12.3101 20.0901 12.0801 20.3201 12.0801 20.6201V23.7001C12.0801 24.0001 12.3101 24.2301 12.6101 24.2301H15.9201C16.2201 24.2301 16.4501 24.0001 16.4501 23.7001V20.6201C16.4501 20.3201 16.2201 20.0901 15.9201 20.0901ZM15.3801 21.1601V23.1601H13.1501V21.1601H15.3801Z" fill="#393939"/>
<path d="M15.9201 13.97H12.6101C12.3101 13.97 12.0801 14.2 12.0801 14.5V17.58C12.0801 17.88 12.3101 18.11 12.6101 18.11H15.9201C16.2201 18.11 16.4501 17.88 16.4501 17.58V14.5C16.4501 14.2 16.2201 13.97 15.9201 13.97ZM15.3801 15.04V17.04H13.1501V15.04H15.3801Z" fill="#393939"/>
<path d="M23.1202 23.7001V20.6201C23.1202 20.3301 22.8802 20.0901 22.5802 20.0901H19.2802C18.9802 20.0901 18.7402 20.3301 18.7402 20.6201V23.7001C18.7402 23.9901 18.9802 24.2301 19.2802 24.2301H22.5802C22.8802 24.2301 23.1202 23.9901 23.1202 23.7001ZM22.0502 21.1601V23.1601H19.8102V21.1601H22.0502Z" fill="#393939"/>
<path d="M19.2805 18.11H22.5805C22.7905 18.11 22.9805 17.99 23.0605 17.81L23.1005 17.73L22.0505 15.95V17.05H19.8105V15.05H21.5105L20.8805 13.98H19.2705C18.9705 13.98 18.7305 14.22 18.7305 14.51V17.59C18.7305 17.88 18.9705 18.12 19.2705 18.12L19.2805 18.11Z" fill="#393939"/>
<path d="M29.56 6.61C28.51 5.57 27.13 5 25.67 5C24.21 5 22.82 5.57 21.78 6.61C20.74 7.65 20.17 9.03 20.17 10.5C20.17 10.69 20.18 10.89 20.21 11.11H10.64C10.22 11.11 9.8 11.28 9.5 11.56C9.18 11.86 9 12.25 9 12.68V34.8C9 35.1 9.24 35.34 9.53 35.34H25.67C25.96 35.34 26.2 35.1 26.2 34.8V20.42L30.48 13.18C30.72 12.75 30.89 12.32 31 11.89C31.12 11.43 31.18 10.96 31.18 10.51C31.18 9.05 30.61 7.67 29.57 6.62L29.56 6.61ZM30.1 10.5C30.1 10.88 30.05 11.24 29.96 11.62C29.87 11.98 29.73 12.32 29.55 12.65L25.67 19.23L21.78 12.65C21.59 12.3 21.46 11.96 21.37 11.63C21.28 11.25 21.24 10.89 21.24 10.51C21.24 9.33 21.7 8.22 22.53 7.38C23.37 6.54 24.48 6.08 25.67 6.08C26.86 6.08 27.97 6.54 28.81 7.38C29.65 8.22 30.11 9.33 30.11 10.52L30.1 10.5ZM21.69 27.31C21.39 27.03 20.97 26.86 20.55 26.86H14.63C14.2 26.86 13.8 27.02 13.49 27.3C13.17 27.6 12.99 27.99 12.99 28.42V34.25H10.07V12.68C10.07 12.55 10.12 12.43 10.22 12.34C10.33 12.24 10.47 12.18 10.64 12.18H20.44C20.57 12.58 20.71 12.92 20.86 13.18L25.13 20.41V34.25H22.19V28.42C22.19 28 22.01 27.6 21.69 27.31ZM14.06 28.42C14.06 28.3 14.12 28.18 14.21 28.09C14.33 27.99 14.48 27.93 14.63 27.93H17.06V34.25H14.06V28.42ZM21.12 28.42V34.25H18.12V27.93H20.55C20.71 27.93 20.86 27.98 20.97 28.08C21.07 28.17 21.12 28.29 21.12 28.42Z" fill="#393939"/>
<path d="M25.6707 7.55005C24.8807 7.55005 24.1407 7.86005 23.5807 8.42005C23.0307 8.97005 22.7207 9.71005 22.7207 10.5C22.7207 11.29 23.0207 12.04 23.5807 12.59C24.1407 13.14 24.8807 13.45 25.6707 13.45C26.4607 13.45 27.1907 13.14 27.7507 12.59C28.3107 12.03 28.6207 11.29 28.6207 10.5C28.6207 9.71005 28.3107 8.97005 27.7507 8.42005C27.1907 7.86005 26.4507 7.55005 25.6707 7.55005ZM27.5507 10.5C27.5507 11.01 27.3507 11.48 27.0007 11.83C26.6507 12.18 26.1707 12.38 25.6707 12.38C25.1707 12.38 24.6907 12.19 24.3407 11.83C23.9907 11.48 23.7907 11 23.7907 10.5C23.7907 10 23.9807 9.53005 24.3407 9.17005C24.7007 8.82005 25.1707 8.62005 25.6707 8.62005C26.1707 8.62005 26.6407 8.82005 27.0007 9.17005C27.3607 9.53005 27.5607 10 27.5607 10.5H27.5507Z" fill="#393939"/>
</svg>
