<svg width="40" height="40" viewBox="0 0 40 40" fill="none" xmlns="http://www.w3.org/2000/svg">
<rect width="40" height="40" rx="5" fill="#FCFCFC"/>
<path d="M29.7398 26.8401C28.1398 26.8401 26.8398 28.1401 26.8398 29.7401C26.8398 31.3401 28.1398 32.6401 29.7398 32.6401C31.3398 32.6401 32.6398 31.3401 32.6398 29.7401C32.6398 28.1401 31.3398 26.8401 29.7398 26.8401ZM31.5898 29.7401C31.5898 30.7601 30.7598 31.5901 29.7398 31.5901C28.7198 31.5901 27.8898 30.7601 27.8898 29.7401C27.8898 28.7201 28.7198 27.8901 29.7398 27.8901C30.7598 27.8901 31.5898 28.7201 31.5898 29.7401Z" fill="#393939"/>
<path d="M24.3493 31.36C24.2193 31.3 24.0793 31.29 23.9493 31.33C20.1693 32.63 15.8893 31.89 12.7493 29.42C12.8193 29.24 12.8593 29.05 12.8593 28.86C12.8593 28.02 12.1793 27.33 11.3293 27.33C11.1393 27.33 10.9493 27.37 10.7693 27.44C8.76928 24.9 7.88928 21.64 8.33928 18.43L8.83928 19.12C8.99928 19.35 9.34928 19.4 9.56928 19.24C9.79928 19.07 9.85928 18.74 9.68928 18.51L8.47928 16.83C8.39928 16.72 8.27928 16.64 8.13928 16.62C8.00928 16.6 7.85928 16.63 7.74928 16.71L6.07928 17.92C5.96928 18 5.88928 18.12 5.86928 18.26C5.84928 18.4 5.87928 18.54 5.95928 18.65C6.03928 18.76 6.15928 18.84 6.29928 18.86C6.43928 18.88 6.57928 18.85 6.68928 18.77L7.29928 18.33C6.81928 21.82 7.79928 25.38 9.98928 28.14C9.86928 28.36 9.80928 28.61 9.80928 28.86C9.80928 29.7 10.4893 30.39 11.3393 30.39C11.5893 30.39 11.8393 30.33 12.0593 30.21C14.3393 32.02 17.1993 33.02 20.1293 33.02C21.5593 33.02 22.9593 32.79 24.2993 32.33C24.4293 32.28 24.5393 32.19 24.5993 32.06C24.6593 31.93 24.6693 31.79 24.6293 31.66C24.5793 31.53 24.4893 31.42 24.3593 31.36H24.3493ZM11.8093 28.87C11.8093 29.13 11.5993 29.35 11.3293 29.35C11.0593 29.35 10.8493 29.14 10.8493 28.87C10.8493 28.6 11.0593 28.39 11.3293 28.39C11.5993 28.39 11.8093 28.6 11.8093 28.87Z" fill="#393939"/>
<path d="M34.3495 28.4C34.1095 28.4 33.9195 28.27 33.8295 28.05C33.7395 27.83 33.7795 27.6 33.9495 27.43C34.1095 27.27 34.1995 27.06 34.1995 26.83C34.1995 26.6 34.1095 26.39 33.9495 26.23L33.2495 25.53C32.9295 25.21 32.3695 25.21 32.0495 25.53C31.8795 25.7 31.6495 25.75 31.4295 25.65C31.2095 25.56 31.0795 25.36 31.0795 25.13C31.0795 24.66 30.6995 24.28 30.2295 24.28H29.2395C28.7695 24.28 28.3895 24.66 28.3895 25.13C28.3895 25.37 28.2595 25.56 28.0395 25.65C27.8195 25.74 27.5895 25.69 27.4195 25.53C27.0895 25.2 26.5495 25.2 26.2195 25.53L25.5195 26.23C25.3595 26.39 25.2695 26.6 25.2695 26.83C25.2695 27.06 25.3595 27.27 25.5195 27.43C25.6895 27.6 25.7295 27.83 25.6395 28.05C25.5495 28.27 25.3495 28.4 25.1195 28.4C24.6495 28.4 24.2695 28.78 24.2695 29.25V30.24C24.2695 30.71 24.6495 31.09 25.1195 31.09C25.3595 31.09 25.5495 31.22 25.6395 31.44C25.7295 31.66 25.6795 31.89 25.5195 32.06C25.3595 32.22 25.2695 32.43 25.2695 32.66C25.2695 32.89 25.3595 33.1 25.5195 33.26L26.2195 33.96C26.5395 34.28 27.0995 34.28 27.4195 33.96C27.5895 33.79 27.8195 33.75 28.0395 33.84C28.2595 33.93 28.3895 34.13 28.3895 34.36C28.3895 34.83 28.7695 35.21 29.2395 35.21H30.2295C30.6995 35.21 31.0795 34.83 31.0795 34.36C31.0795 34.12 31.2095 33.93 31.4295 33.84C31.6495 33.75 31.8795 33.79 32.0495 33.96C32.3795 34.29 32.9195 34.29 33.2495 33.96L33.9495 33.26C34.2795 32.93 34.2795 32.39 33.9495 32.06C33.7795 31.89 33.7395 31.66 33.8295 31.44C33.9195 31.22 34.1195 31.09 34.3495 31.09C34.8195 31.09 35.1995 30.71 35.1995 30.24V29.25C35.1995 28.78 34.8195 28.4 34.3495 28.4ZM32.8595 31.03C32.6295 31.58 32.7195 32.19 33.0795 32.64L32.6495 33.07C32.1895 32.71 31.5795 32.63 31.0395 32.85C30.4895 33.08 30.1195 33.57 30.0495 34.14H29.4395C29.3695 33.56 28.9995 33.07 28.4495 32.85C27.8995 32.62 27.2995 32.7 26.8395 33.07L26.4095 32.64C26.7695 32.18 26.8495 31.57 26.6295 31.03C26.3995 30.48 25.9195 30.11 25.3395 30.04V29.43C25.9195 29.36 26.4095 28.99 26.6295 28.44C26.8595 27.89 26.7795 27.29 26.4095 26.83L26.8395 26.4C27.2995 26.76 27.8995 26.85 28.4495 26.62C28.9995 26.39 29.3695 25.9 29.4395 25.33H30.0495C30.1195 25.91 30.4895 26.4 31.0395 26.62C31.5795 26.84 32.1995 26.76 32.6495 26.4L33.0795 26.83C32.7195 27.29 32.6295 27.89 32.8595 28.44C33.0895 28.99 33.5795 29.36 34.1495 29.43V30.04C33.5695 30.11 33.0895 30.47 32.8595 31.03Z" fill="#393939"/>
<path d="M15.8506 8.83999C15.9806 8.89999 16.1206 8.90999 16.2506 8.85999C20.0306 7.55999 24.3106 8.28999 27.4506 10.77C27.3806 10.95 27.3406 11.14 27.3406 11.33C27.3406 12.17 28.0206 12.86 28.8706 12.86C29.0606 12.86 29.2506 12.82 29.4306 12.75C31.4306 15.29 32.3106 18.56 31.8606 21.76L31.3606 21.07C31.2806 20.96 31.1606 20.88 31.0206 20.86C30.8806 20.84 30.7406 20.87 30.6306 20.95C30.5206 21.03 30.4406 21.15 30.4206 21.29C30.4006 21.43 30.4306 21.57 30.5106 21.68L31.7206 23.35C31.8006 23.46 31.9206 23.54 32.0606 23.56C32.0906 23.56 32.1206 23.56 32.1506 23.56C32.2606 23.56 32.3706 23.53 32.4606 23.46L34.1306 22.25C34.2406 22.17 34.3206 22.05 34.3406 21.91C34.3606 21.77 34.3306 21.63 34.2506 21.52C34.0806 21.29 33.7506 21.23 33.5206 21.4L32.9106 21.84C33.1406 20.17 33.0306 18.44 32.6106 16.82C32.1606 15.09 31.3306 13.44 30.2206 12.03C30.3406 11.81 30.4006 11.56 30.4006 11.31C30.4006 10.47 29.7206 9.77999 28.8706 9.77999C28.6206 9.77999 28.3706 9.83999 28.1506 9.95999C24.7306 7.23999 20.0406 6.42999 15.9106 7.84999C15.7806 7.89999 15.6706 7.98999 15.6106 8.11999C15.5506 8.24999 15.5406 8.38999 15.5806 8.51999C15.6206 8.64999 15.7206 8.75999 15.8506 8.81999V8.83999ZM28.3906 11.33C28.3906 11.07 28.6006 10.85 28.8706 10.85C29.1406 10.85 29.3506 11.06 29.3506 11.33C29.3506 11.6 29.1406 11.81 28.8706 11.81C28.6006 11.81 28.3906 11.6 28.3906 11.33Z" fill="#393939"/>
<path d="M12.7605 10.0499C12.7605 8.44991 11.4605 7.15991 9.87047 7.15991C8.28047 7.15991 6.98047 8.45991 6.98047 10.0499C6.98047 10.8599 7.24047 11.2699 7.50047 11.6599C7.71047 11.9799 7.92047 12.3099 8.03047 13.0099C7.79047 13.1799 7.66047 13.4499 7.66047 13.7499V14.5999C7.66047 15.0599 8.01047 15.4499 8.46047 15.5099C8.52047 15.9499 8.89047 16.2799 9.35047 16.2799H10.4205C10.8705 16.2799 11.2505 15.9499 11.3105 15.5099C11.7605 15.4499 12.1105 15.0599 12.1105 14.5999V13.7499C12.1105 13.4599 11.9705 13.1899 11.7405 13.0099C11.8505 12.3099 12.0605 11.9799 12.2705 11.6499C12.5205 11.2599 12.7805 10.8499 12.7805 10.0399L12.7605 10.0499ZM8.96047 14.4599H8.69047V13.8799H11.0405V14.4599H10.7705C10.4805 14.4599 10.2405 14.6999 10.2405 14.9899V15.2299H9.48047V14.9899C9.48047 14.6999 9.24047 14.4599 8.96047 14.4599ZM10.3905 12.8299V10.7899L11.1405 10.3499C11.2605 10.2799 11.3505 10.1699 11.3905 10.0299C11.4305 9.88991 11.4105 9.74991 11.3405 9.62991C11.1905 9.37991 10.8705 9.28991 10.6205 9.43991L9.87047 9.86991L9.12047 9.42991C8.87047 9.28991 8.55047 9.36991 8.40047 9.61991C8.33047 9.73991 8.31047 9.87991 8.35047 10.0199C8.39047 10.1599 8.47047 10.2699 8.59047 10.3399L9.34047 10.7799V12.8199H9.05047C8.91047 11.9099 8.61047 11.4499 8.37047 11.0699C8.15047 10.7399 8.02047 10.5299 8.02047 10.0299C8.02047 9.00991 8.85047 8.18991 9.86047 8.18991C10.8705 8.18991 11.7005 9.01991 11.7005 10.0299C11.7005 10.5299 11.5705 10.7299 11.3505 11.0699C11.1105 11.4399 10.8105 11.8999 10.6705 12.8199H10.3805L10.3905 12.8299Z" fill="#393939"/>
<path d="M7.2807 7.12002C7.3707 7.28002 7.5507 7.38002 7.7407 7.38002C7.8307 7.38002 7.9207 7.36002 8.0007 7.31002C8.2507 7.17002 8.3407 6.84002 8.1907 6.59002L7.8107 5.93002C7.7407 5.81002 7.6307 5.72002 7.4907 5.69002C7.3507 5.66002 7.2107 5.67002 7.0907 5.74002C6.9707 5.81002 6.8807 5.92002 6.8407 6.06002C6.8007 6.20002 6.8207 6.34002 6.8907 6.46002L7.2707 7.12002H7.2807Z" fill="#393939"/>
<path d="M9.85984 6.81C10.1498 6.81 10.3898 6.57 10.3898 6.29V5.53C10.3898 5.24 10.1498 5 9.85984 5C9.56984 5 9.33984 5.24 9.33984 5.53V6.29C9.33984 6.58 9.57984 6.81 9.85984 6.81Z" fill="#393939"/>
<path d="M11.7295 7.30996C11.8095 7.35996 11.8995 7.37996 11.9895 7.37996C12.1795 7.37996 12.3495 7.27996 12.4495 7.11996L12.8295 6.45996C12.8995 6.33996 12.9195 6.19996 12.8795 6.05996C12.8395 5.91996 12.7595 5.80996 12.6295 5.73996C12.3795 5.58996 12.0595 5.67996 11.9095 5.92996L11.5295 6.58996C11.3895 6.83996 11.4695 7.15996 11.7195 7.30996H11.7295Z" fill="#393939"/>
<path d="M19.8409 12.2001L13.3909 15.9201C13.2309 16.0101 13.1309 16.1901 13.1309 16.3701V23.8201C13.1309 24.0101 13.2309 24.1801 13.3909 24.2801L19.8409 28.0001C19.9209 28.0501 20.0109 28.0701 20.1009 28.0701C20.1909 28.0701 20.2809 28.0501 20.3609 28.0001L26.8109 24.2801C26.9709 24.1901 27.0709 24.0101 27.0709 23.8201V16.3701C27.0709 16.1801 26.9709 16.0101 26.8109 15.9201L20.3609 12.2001C20.2009 12.1101 20.0009 12.1101 19.8309 12.2001H19.8409ZM19.5809 20.4001V26.6301L14.1809 23.5101V17.2801L19.5809 20.4001ZM22.9609 20.9501V19.0601L23.7009 18.6301V20.5201L22.9609 20.9501ZM20.6309 20.4001L21.9109 19.6601V21.8501C21.9109 22.0401 22.0109 22.2101 22.1709 22.3101C22.3309 22.4001 22.5409 22.4001 22.6909 22.3101L24.4809 21.2701C24.6409 21.1801 24.7409 21.0001 24.7409 20.8201V18.0201L26.0209 17.2801V23.5101L20.6209 26.6301V20.4001H20.6309ZM18.8309 14.0001L20.1109 13.2601L25.5109 16.3801L24.2309 17.1201L18.8309 14.0001ZM22.4309 18.1501L17.0309 15.0301L17.7709 14.6001L23.1709 17.7201L22.4309 18.1501ZM21.3809 18.7601L20.1009 19.5001L14.7009 16.3801L15.9809 15.6401L21.3809 18.7601Z" fill="#393939"/>
<path d="M13.5404 8.93991C13.6304 8.93991 13.7204 8.91991 13.8004 8.86991L14.4604 8.48991C14.5804 8.41991 14.6704 8.30991 14.7004 8.16991C14.7404 8.02991 14.7204 7.88991 14.6504 7.76991C14.5804 7.64991 14.4704 7.55991 14.3304 7.52991C14.1904 7.48991 14.0504 7.50991 13.9304 7.57991L13.2704 7.95991C13.1504 8.02991 13.0604 8.13991 13.0204 8.27991C12.9804 8.41991 13.0004 8.55991 13.0704 8.67991C13.1604 8.83991 13.3404 8.93991 13.5304 8.93991H13.5404Z" fill="#393939"/>
<path d="M5.92039 8.87005C6.00039 8.92005 6.09039 8.94005 6.18039 8.94005C6.37039 8.94005 6.54039 8.84005 6.64039 8.68005C6.71039 8.56005 6.73039 8.42005 6.69039 8.28005C6.65039 8.14005 6.57039 8.03005 6.45039 7.96005L5.79039 7.58005C5.54039 7.43005 5.22039 7.52005 5.07039 7.77005C5.00039 7.89005 4.98039 8.03005 5.02039 8.17005C5.06039 8.31005 5.14039 8.42005 5.27039 8.49005L5.93039 8.87005H5.92039Z" fill="#393939"/>
</svg>
