<svg width="40" height="40" viewBox="0 0 40 40" fill="none" xmlns="http://www.w3.org/2000/svg">
<rect width="40" height="40" rx="5" fill="#FCFCFC"/>
<path d="M20 10.51L19.97 10.49C18.79 9.91 14.43 8 7.97 8C7.77 8 7.6 8.17 7.6 8.37V10.55H5.37C5.17 10.55 5 10.71 5 10.92V30.97C5 31.17 5.16 31.34 5.37 31.34H34.63C34.83 31.34 35 31.18 35 30.97V10.92C35 10.82 34.96 10.73 34.89 10.66C34.82 10.59 34.73 10.55 34.63 10.55H32.39V8.37C32.39 8.17 32.23 8 32.02 8C25.56 8 21.21 9.91 20.03 10.49L20 10.51ZM5.74 30.61V11.29H7.61V28.42C7.61 28.62 7.78 28.79 7.98 28.79H8.08C11.41 28.79 14.7 29.35 17.84 30.46L18.26 30.61H5.74ZM19.64 30.39L19.53 30.34C18.07 29.68 14.05 28.14 8.42 28.06H8.35V8.74H8.43C14.36 8.83 18.48 10.59 19.6 11.13L19.64 11.15V30.39ZM32.04 28.8C32.24 28.8 32.41 28.64 32.41 28.43V11.29H34.28V30.61H21.76L22.18 30.46C25.32 29.35 28.61 28.79 31.94 28.79H32.05L32.04 28.8ZM20.37 11.15L20.41 11.13C21.53 10.59 25.64 8.83 31.58 8.74H31.66V28.06H31.59C25.96 28.14 21.94 29.68 20.48 30.34L20.37 30.39V11.15Z" fill="#393939"/>
<path d="M29.4707 12.03C29.4707 12.03 29.4507 12.03 29.4407 12.03C27.0607 12.22 24.7007 12.7 22.4407 13.45C22.2507 13.51 22.1407 13.72 22.2107 13.92C22.2607 14.07 22.4007 14.17 22.5607 14.17C22.6007 14.17 22.6407 14.17 22.6807 14.15C24.8907 13.42 27.1907 12.95 29.5107 12.77C29.7107 12.75 29.8607 12.57 29.8507 12.37C29.8307 12.18 29.6707 12.03 29.4807 12.03H29.4707Z" fill="#393939"/>
<path d="M29.4807 15.0801C29.4807 15.0801 29.4607 15.0801 29.4507 15.0801C27.0607 15.2701 24.7007 15.7501 22.4407 16.5001C22.2507 16.5601 22.1407 16.7701 22.2107 16.9701C22.2607 17.1201 22.4007 17.2201 22.5607 17.2201C22.6007 17.2201 22.6407 17.2201 22.6807 17.2001C24.8907 16.4701 27.1907 16.0001 29.5107 15.8201C29.7107 15.8101 29.8707 15.6301 29.8507 15.4301C29.8407 15.2401 29.6707 15.0901 29.4807 15.0901V15.0801Z" fill="#393939"/>
<path d="M22.4408 25.65C22.3508 25.68 22.2708 25.75 22.2308 25.83C22.1908 25.91 22.1808 26.02 22.2108 26.11C22.2408 26.2 22.3108 26.28 22.3908 26.32C22.4808 26.36 22.5808 26.37 22.6708 26.34C24.8808 25.61 27.1808 25.14 29.5008 24.96C29.7008 24.95 29.8608 24.77 29.8408 24.57C29.8408 24.47 29.7908 24.38 29.7108 24.32C29.6308 24.26 29.5408 24.22 29.4408 24.23H29.3608C27.0008 24.43 24.6708 24.9 22.4308 25.64L22.4408 25.65Z" fill="#393939"/>
<path d="M29.4807 21.1799C29.4807 21.1799 29.4607 21.1799 29.4507 21.1799C27.0607 21.3699 24.7107 21.8499 22.4407 22.5999C22.2507 22.6599 22.1407 22.8699 22.2107 23.0699C22.2707 23.2599 22.4807 23.3699 22.6807 23.2999C24.8907 22.5699 27.1907 22.0999 29.5107 21.9199C29.6107 21.9199 29.7007 21.8699 29.7607 21.7899C29.8207 21.7199 29.8607 21.6199 29.8507 21.5199C29.8407 21.3299 29.6707 21.1799 29.4807 21.1799Z" fill="#393939"/>
<path d="M29.4707 18.1299C29.4707 18.1299 29.4507 18.1299 29.4407 18.1299C27.0607 18.3199 24.7007 18.7999 22.4407 19.5499C22.2507 19.6099 22.1407 19.8199 22.2107 20.0199C22.2707 20.2099 22.4907 20.3199 22.6807 20.2499C24.8907 19.5199 27.1907 19.0499 29.5107 18.8699C29.7107 18.8499 29.8607 18.6699 29.8507 18.4699C29.8307 18.2799 29.6707 18.1299 29.4807 18.1299H29.4707Z" fill="#393939"/>
<path d="M10.5 12.77C12.82 12.96 15.12 13.42 17.33 14.15C17.52 14.21 17.73 14.11 17.79 13.91C17.85 13.72 17.75 13.52 17.56 13.45C15.29 12.7 12.94 12.22 10.56 12.03C10.46 12.03 10.37 12.05 10.29 12.12C10.22 12.18 10.17 12.27 10.16 12.37C10.14 12.57 10.29 12.75 10.5 12.77Z" fill="#393939"/>
<path d="M10.5004 15.8201C12.8204 16.0101 15.1204 16.4701 17.3304 17.2001C17.5204 17.2601 17.7304 17.1501 17.7904 16.9601C17.8504 16.7701 17.7504 16.5601 17.5604 16.5001C15.2904 15.7501 12.9404 15.2701 10.5604 15.0801C10.3604 15.0601 10.1804 15.2201 10.1704 15.4201C10.1604 15.6201 10.3004 15.7901 10.5004 15.8101V15.8201Z" fill="#393939"/>
<path d="M10.2404 24.83C10.3004 24.9 10.3804 24.95 10.4704 24.96H10.4904C12.8104 25.15 15.1104 25.61 17.3204 26.34C17.4104 26.37 17.5104 26.35 17.6004 26.31C17.6904 26.26 17.7504 26.18 17.7704 26.09C17.8204 25.91 17.7304 25.72 17.5504 25.65C15.2904 24.9 12.9304 24.42 10.5504 24.23C10.5404 24.23 10.5304 24.23 10.5204 24.23C10.3304 24.23 10.1704 24.37 10.1504 24.56C10.1504 24.66 10.1704 24.75 10.2304 24.83H10.2404Z" fill="#393939"/>
<path d="M10.2404 21.7799C10.3004 21.8599 10.3904 21.8999 10.4904 21.9099V21.9799V21.8999C12.8104 22.0899 15.1104 22.5499 17.3204 23.2799C17.5104 23.3399 17.7204 23.2299 17.7804 23.0399C17.8404 22.8499 17.7404 22.6499 17.5504 22.5799C15.2804 21.8299 12.9304 21.3499 10.5504 21.1599C10.5404 21.1599 10.5304 21.1599 10.5204 21.1599C10.3304 21.1599 10.1704 21.2999 10.1504 21.4899C10.1504 21.5899 10.1704 21.6799 10.2304 21.7599L10.2404 21.7799Z" fill="#393939"/>
<path d="M10.4998 18.8699C12.8198 19.0599 15.1198 19.5199 17.3298 20.2499C17.5198 20.3199 17.7298 20.2099 17.7998 20.0199C17.8598 19.8299 17.7598 19.6199 17.5698 19.5499C15.2998 18.7999 12.9498 18.3199 10.5698 18.1299C10.4698 18.1299 10.3798 18.1499 10.2998 18.2199C10.2198 18.2799 10.1798 18.3699 10.1698 18.4699C10.1498 18.6699 10.2998 18.8499 10.5098 18.8699H10.4998Z" fill="#393939"/>
</svg>
