<svg width="40" height="40" viewBox="0 0 40 40" fill="none" xmlns="http://www.w3.org/2000/svg">
<rect width="40" height="40" rx="5" fill="#FCFCFC"/>
<path d="M34.74 17.64L31.61 15.97V5.48C31.61 5.21 31.39 5 31.13 5H8.87C8.6 5 8.39 5.22 8.39 5.48V15.96L5.26 17.63C5.1 17.71 5 17.88 5 18.06V34.51C5 34.78 5.22 34.99 5.48 34.99H34.51C34.78 34.99 34.99 34.77 34.99 34.51V18.06C34.99 17.88 34.89 17.72 34.73 17.63L34.74 17.64ZM31.61 17.07L33.49 18.07L31.61 19.07V17.07ZM9.35 5.97H30.64V19.58L19.99 25.26L9.34 19.58V5.97H9.35ZM8.38 17.07V19.07L6.5 18.07L8.38 17.07ZM5.97 34.03V18.87L14.53 23.43L6.69 34.03H5.97ZM7.9 34.03L15.39 23.89L19.78 26.23C19.92 26.31 20.09 26.31 20.23 26.23L24.62 23.89L32.11 34.03H7.89H7.9ZM34.04 34.03H33.32L25.49 23.43L34.05 18.87V34.03H34.04Z" fill="#393939"/>
<path d="M13.7109 14.1899C13.7109 17.6599 16.5309 20.4799 20.0009 20.4799C20.2709 20.4799 20.4809 20.2599 20.4809 19.9999C20.4809 19.7399 20.2609 19.5199 20.0009 19.5199C17.0609 19.5199 14.6809 17.1399 14.6809 14.1999C14.6809 11.2599 17.0609 8.87991 20.0009 8.87991C22.9409 8.87991 25.3209 11.2599 25.3209 14.1999V15.1699C25.3209 15.3599 25.0509 16.6199 23.8709 16.6199C23.1409 16.6199 22.9009 14.9899 22.9009 14.1999C22.9009 12.3299 21.6009 10.8099 20.0009 10.8099C18.4009 10.8099 17.1009 12.3299 17.1009 14.1999C17.1009 16.0699 18.4009 17.5899 20.0009 17.5899C20.9309 17.5899 21.7609 17.0799 22.2909 16.2799C22.7009 17.3499 23.3609 17.5899 23.8709 17.5899C25.5609 17.5899 26.2909 15.9899 26.2909 15.1699V14.1999C26.2909 10.7299 23.4709 7.90991 20.0009 7.90991C16.5309 7.90991 13.7109 10.7299 13.7109 14.1999V14.1899ZM20.0009 16.6099C18.9309 16.6099 18.0609 15.5199 18.0609 14.1899C18.0609 12.8599 18.9309 11.7699 20.0009 11.7699C21.0709 11.7699 21.9409 12.8599 21.9409 14.1899C21.9409 15.5199 21.0709 16.6099 20.0009 16.6099Z" fill="#393939"/>
</svg>
