<svg width="28" height="32" viewBox="0 0 28 32" fill="none" xmlns="http://www.w3.org/2000/svg">
<path fill-rule="evenodd" clip-rule="evenodd" d="M23.4894 12.7299C24.1894 12.1699 24.6294 11.3799 24.7394 10.4899C24.8494 9.58993 24.5994 8.69993 24.0394 7.97993C23.1194 6.80993 21.5194 6.36993 20.1394 6.90993L17.1094 1.65993C16.9294 1.34993 16.6494 1.12993 16.2994 1.03993C15.9594 0.949931 15.5994 0.999931 15.2894 1.16993C14.6894 1.51993 14.4594 2.26993 14.7594 2.89993C13.0394 9.04993 9.02937 11.9099 6.14937 13.5299L2.27937 15.7599C1.04937 16.4699 0.62937 18.0499 1.33937 19.2799L3.37937 22.8199C4.08937 24.0499 5.66937 24.4699 6.89937 23.7599L6.93937 23.7399L10.5994 30.0799C10.8594 30.5399 11.3094 30.8799 11.8294 31.0199C11.9994 31.0699 12.1794 31.0899 12.3594 31.0899C12.7094 31.0899 13.0594 30.9999 13.3594 30.8199C14.3194 30.2599 14.6494 29.0199 14.0994 28.0599L10.4394 21.7199L10.7794 21.5199C13.6194 19.8399 18.1094 17.7999 24.2794 19.3899C24.4594 19.6499 24.7294 19.8399 25.0294 19.9299C25.1394 19.9599 25.2594 19.9799 25.3794 19.9799C26.1094 19.9799 26.7094 19.3799 26.7094 18.6399C26.7094 18.4099 26.6494 18.1799 26.5294 17.9799L23.4994 12.7299H23.4894ZM21.9694 7.79993C23.2294 8.13993 23.9794 9.42993 23.6394 10.6899C23.5194 11.1199 23.2894 11.5099 22.9594 11.8099L20.6594 7.81993C21.0894 7.68993 21.5394 7.67993 21.9694 7.78993V7.79993ZM16.2294 18.1899C14.3794 18.5999 12.5594 19.3199 10.6794 20.3799L7.09937 14.1799C8.95937 13.0799 10.4894 11.8699 11.7694 10.4699C13.4094 8.66993 14.6494 6.54993 15.4594 4.13993L23.5594 18.1699C21.0894 17.6699 18.6494 17.6699 16.2894 18.1799L16.2294 18.1899ZM25.6494 18.7099C25.6094 18.8799 25.4494 18.9699 25.2894 18.9299C25.2194 18.9099 25.1494 18.8599 25.1094 18.7899L15.7594 2.57993L15.6994 2.46993C15.6194 2.32993 15.6694 2.14993 15.8094 2.06993C15.8494 2.03993 15.9094 2.02993 15.9494 2.02993C16.0494 2.02993 16.1494 2.07993 16.1994 2.17993L25.6194 18.4999C25.6594 18.5599 25.6694 18.6399 25.6494 18.7099ZM6.19937 14.7099L9.77504 20.9024L6.45937 22.8199L6.37937 22.8699C5.64937 23.2899 4.69937 23.0399 4.27937 22.3099L2.23937 18.7699C1.81937 18.0399 2.06937 17.0899 2.79937 16.6699L6.19937 14.7099ZM9.42937 22.2999L9.53937 22.2399L13.1994 28.5799C13.4694 29.0499 13.3094 29.6499 12.8394 29.9199C12.6094 30.0499 12.3494 30.0899 12.0894 30.0199C11.8394 29.9499 11.6294 29.7899 11.4894 29.5599L7.82937 23.2199L9.41937 22.2999H9.42937ZM23.1294 5.70993C23.1294 5.99993 22.8994 6.22993 22.6094 6.22993C22.3194 6.22993 22.0894 5.99993 22.0894 5.70993V3.75993C22.0894 3.46993 22.3194 3.23993 22.6094 3.23993C22.8994 3.23993 23.1294 3.46993 23.1294 3.75993V5.70993ZM25.7845 8.05992L25.7794 8.05994H25.7894L25.7845 8.05992ZM26.0394 7.98994C25.9609 8.03899 25.8728 8.05916 25.7845 8.05992C25.6063 8.05831 25.4385 7.96841 25.3394 7.79994C25.1994 7.54994 25.2794 7.22994 25.5294 7.08994L27.2194 6.10994C27.3394 6.03994 27.4794 6.01994 27.6094 6.05994C27.7394 6.08994 27.8494 6.17994 27.9194 6.29994C27.9894 6.41994 28.0094 6.55994 27.9694 6.68994C27.9394 6.82994 27.8494 6.93994 27.7294 7.00994L26.0394 7.98994ZM26.0294 10.74L27.7194 11.72C27.9694 11.86 28.0494 12.18 27.9094 12.44C27.8394 12.55 27.7294 12.64 27.5994 12.67C27.5594 12.69 27.5094 12.69 27.4694 12.69C27.3794 12.69 27.2894 12.67 27.2094 12.62L25.5194 11.64C25.3994 11.57 25.3194 11.45 25.2794 11.32C25.2394 11.19 25.2594 11.05 25.3294 10.93C25.4694 10.69 25.7794 10.6 26.0294 10.74Z" fill="#393939"/>
</svg>
