<svg width="40" height="40" viewBox="0 0 40 40" fill="none" xmlns="http://www.w3.org/2000/svg">
<rect width="40" height="40" rx="5" fill="#FCFCFC"/>
<path d="M16.7109 7.62988C11.7109 7.62988 7.63086 11.7099 7.63086 16.7099C7.63086 21.7099 11.7009 25.7899 16.7109 25.7899C21.7209 25.7899 25.7909 21.7199 25.7909 16.7099C25.7909 11.6999 21.7209 7.62988 16.7109 7.62988ZM16.7109 24.7299C12.2809 24.7299 8.68086 21.1299 8.68086 16.6999C8.68086 12.2699 12.2909 8.68988 16.7109 8.68988C21.1309 8.68988 24.7409 12.2899 24.7409 16.7199C24.7409 21.1499 21.1409 24.7499 16.7109 24.7499V24.7299Z" fill="#393939"/>
<path d="M32.17 35C32.93 35 33.64 34.71 34.17 34.17C35.27 33.07 35.27 31.27 34.17 30.17L28.17 24.17L27.47 24.87L26.18 23.57L26.25 23.48C27.67 21.48 28.43 19.14 28.43 16.71C28.42 10.25 23.17 5 16.71 5C10.25 5 5 10.25 5 16.71C5 23.17 10.25 28.42 16.71 28.42C19.14 28.42 21.49 27.67 23.49 26.24L23.58 26.17L24.87 27.46L24.17 28.16L30.17 34.16C30.7 34.69 31.41 34.99 32.17 34.99V35ZM16.71 27.37C10.83 27.37 6.05 22.59 6.05 16.71C6.05 10.83 10.84 6.05 16.71 6.05C22.58 6.05 27.37 10.83 27.37 16.71C27.37 22.59 22.59 27.37 16.71 27.37ZM25.52 26.64L25.43 26.55L24.41 25.52L24.51 25.43C24.79 25.18 25.28 24.68 25.43 24.51L25.52 24.41L26.73 25.62L26.64 25.71C26.2 26.15 25.95 26.4 25.79 26.54L25.7 26.64H25.68C25.63 26.67 25.59 26.68 25.57 26.68C25.55 26.68 25.53 26.66 25.51 26.64H25.52ZM25.76 28.08C25.82 28.02 27.96 25.88 28.09 25.75L28.18 25.66L28.37 25.84L33.44 30.91C33.77 31.24 33.96 31.69 33.96 32.16C33.96 32.63 33.78 33.08 33.44 33.42C33.11 33.75 32.64 33.92 32.18 33.92C31.72 33.92 31.26 33.75 30.92 33.42L25.67 28.17L25.76 28.08Z" fill="#393939"/>
<path d="M13.2707 16.8401H12.2207V21.1801H13.2707V16.8401Z" fill="#393939"/>
<path d="M18.5109 15.3101H17.4609V21.1901H18.5109V15.3101Z" fill="#393939"/>
<path d="M15.9309 13.77H14.8809V21.18H15.9309V13.77Z" fill="#393939"/>
<path d="M21.2004 12.24H20.1504V21.19H21.2004V12.24Z" fill="#393939"/>
</svg>
