<svg width="120" height="120" viewBox="0 0 120 120" fill="none" xmlns="http://www.w3.org/2000/svg">
<path d="M118 0H107.92C106.8 0 105.88 0.92 105.88 2V45.36H64.6V12.08C64.6 11 63.68 10.08 62.56 10.08H27.24C26.12 10.08 25.2 11 25.2 12.08V45.36H14.16V2C14.16 0.92 13.24 0 12.12 0H2C0.92 0 0 0.92 0 2V117.96C0 119.04 0.92 119.96 2 119.96H12.08C13.2 119.96 14.12 119.04 14.12 117.96V104.84H105.8V117.96C105.8 119.04 106.72 119.96 107.84 119.96H117.92C119 119.96 119.92 119.04 119.92 117.96V2C119.92 0.92 119 0 117.92 0H118ZM10.08 115.92H4.08V4.08H10.08V115.92ZM29.28 14.16H42.88V27.28C42.88 28.36 43.76 29.28 44.88 29.28C46 29.28 46.88 28.36 46.88 27.28V14.16H60.48V45.36H29.28V14.16ZM50.4 100.8H24.24V74.64H35.28V82.68C35.28 83.8 36.2 84.72 37.32 84.72C38.44 84.72 39.32 83.8 39.32 82.68V74.64H50.36V100.8H50.4ZM95.76 100.8H64.56V69.6H78.16V82.68C78.16 83.8 79.04 84.72 80.16 84.72C81.28 84.72 82.16 83.8 82.16 82.68V69.6H95.76V100.8ZM105.84 100.8H99.84V67.56C99.84 66.44 98.92 65.52 97.84 65.52H62.52C61.44 65.52 60.52 66.44 60.52 67.56V100.8H54.52V72.56C54.52 71.48 53.6 70.56 52.48 70.56H22.24C21.16 70.56 20.24 71.48 20.24 72.56V100.8H14.24V49.44H105.92V100.8H105.84ZM115.92 115.92H109.92V4.08H115.92V115.92Z" fill="#393939"/>
</svg>
