<svg width="94" height="94" viewBox="0 0 94 94" fill="none" xmlns="http://www.w3.org/2000/svg">
<path d="M77.8215 26.3832C77.8362 26.6446 77.8436 26.9075 77.8436 27.1719C77.8436 27.5614 77.9983 27.935 78.2737 28.2105C78.5492 28.4859 78.9228 28.6406 79.3123 28.6406C79.7018 28.6406 80.0754 28.4859 80.3509 28.2105C80.6263 27.935 80.7811 27.5614 80.7811 27.1719C80.7811 26.8532 80.7708 26.5345 80.7531 26.2231C80.7468 26.0292 80.7012 25.8387 80.6193 25.6629C80.5373 25.4871 80.4207 25.3298 80.2764 25.2002C80.132 25.0707 79.9629 24.9717 79.7794 24.9092C79.5958 24.8467 79.4014 24.822 79.208 24.8366C78.8191 24.8578 78.4545 25.0327 78.1945 25.3227C77.9344 25.6128 77.8003 25.9942 77.8215 26.3832Z" fill="#393939"/>
<path d="M63.8906 13.2188C66.2755 13.2126 68.6217 13.8208 70.7032 14.9849C72.7847 16.149 74.5311 17.8297 75.7743 19.8649C75.8711 20.0379 76.0018 20.1895 76.1588 20.3107C76.3157 20.4318 76.4955 20.5199 76.6874 20.5696C76.8793 20.6194 77.0793 20.6298 77.2753 20.6002C77.4713 20.5706 77.6593 20.5017 77.828 20.3975C77.9966 20.2934 78.1424 20.1561 78.2566 19.9941C78.3709 19.8321 78.4511 19.6486 78.4925 19.4547C78.5339 19.2609 78.5356 19.0606 78.4976 18.8661C78.4596 18.6715 78.3825 18.4867 78.2712 18.3227C76.7667 15.8601 74.6532 13.8265 72.1344 12.418C69.6156 11.0095 66.7765 10.2737 63.8906 10.2813C63.5011 10.2813 63.1275 10.4361 62.8521 10.7115C62.5766 10.9869 62.4219 11.3605 62.4219 11.7501C62.4219 12.1396 62.5766 12.5132 62.8521 12.7886C63.1275 13.0641 63.5011 13.2188 63.8906 13.2188Z" fill="#393939"/>
<path d="M47.7656 15.6304C48.1552 15.6304 48.5287 15.4757 48.8042 15.2003C49.0796 14.9248 49.2344 14.5512 49.2344 14.1617V10.3268C49.2344 9.93725 49.0796 9.56366 48.8042 9.28822C48.5287 9.01277 48.1552 8.85803 47.7656 8.85803C47.3761 8.85803 47.0025 9.01277 46.7271 9.28822C46.4516 9.56366 46.2969 9.93725 46.2969 10.3268V14.1617C46.2969 14.5512 46.4516 14.9248 46.7271 15.2003C47.0025 15.4757 47.3761 15.6304 47.7656 15.6304Z" fill="#393939"/>
<path d="M47.7651 19.0424C48.5673 19.0424 49.2177 18.392 49.2177 17.5898C49.2177 16.7876 48.5673 16.1372 47.7651 16.1372C46.9628 16.1372 46.3125 16.7876 46.3125 17.5898C46.3125 18.392 46.9628 19.0424 47.7651 19.0424Z" fill="#393939"/>
<mask id="path-5-outside-1_101_283" maskUnits="userSpaceOnUse" x="3.40527" y="3.33215" width="87" height="87" fill="black">
<rect fill="white" x="3.40527" y="3.33215" width="87" height="87"/>
<path d="M88.8391 35.93C88.6107 35.8029 88.3526 35.739 88.0913 35.7449C87.83 35.7509 87.575 35.8264 87.3527 35.9638L83.8277 38.1493C86.1627 33.9176 87.0895 29.0523 86.4739 24.2585C85.8583 19.4647 83.7323 14.9914 80.4039 11.487C77.0755 7.98251 72.7177 5.62891 67.962 4.76724C63.2062 3.90557 58.2997 4.58061 53.9533 6.69453C52.9902 5.85171 51.8674 5.21115 50.6517 4.81093C49.4361 4.41072 48.1524 4.25902 46.8769 4.36485C45.6015 4.47068 44.3603 4.83189 43.2272 5.42699C42.0942 6.0221 41.0923 6.83895 40.2813 7.82899C39.4702 8.81902 38.8665 9.96203 38.506 11.1901C38.1455 12.4181 38.0356 13.7061 38.1829 14.9774C38.3301 16.2487 38.7315 17.4775 39.3631 18.5906C39.9948 19.7037 40.8437 20.6785 41.8596 21.4569C41.1443 24.1481 40.9449 26.9504 41.2721 29.7157C40.7261 29.7353 40.1886 29.8568 39.6873 30.0741L31.1803 33.7812C31.829 31.9483 31.8885 29.9584 31.3505 28.09C30.8125 26.2216 29.7039 24.5681 28.1798 23.3607C26.6558 22.1534 24.7924 21.4527 22.8505 21.3566C20.9085 21.2604 18.9851 21.7737 17.3492 22.8247C15.7134 23.8756 14.4469 25.4116 13.7271 27.2177C13.0072 29.0239 12.8699 31.0099 13.3344 32.8979C13.7989 34.786 14.8419 36.4816 16.3176 37.7476C17.7932 39.0137 19.6277 39.7868 21.5644 39.9588C21.4909 40.2713 21.452 40.591 21.4484 40.912V57.3326L20.7287 65.0656L16.9232 73.6328C16.553 74.5112 16.4818 75.4869 16.7207 76.4097C16.9596 77.3325 17.4952 78.1512 18.2451 78.7397L5.10269 86.8751C4.83059 87.043 4.62071 87.2951 4.50494 87.5932C4.38916 87.8912 4.37381 88.2189 4.46121 88.5264C4.54861 88.834 4.73399 89.1047 4.9892 89.2973C5.24441 89.4899 5.55551 89.594 5.87525 89.5937H88.1253C88.5148 89.5937 88.8884 89.439 89.1638 89.1635C89.4393 88.8881 89.594 88.5145 89.594 88.125V37.2137C89.594 36.9518 89.524 36.6948 89.3913 36.4691C89.2586 36.2434 89.0679 36.0572 88.8391 35.93ZM28.5293 59.0819C25.4522 59.0819 24.5298 55.2793 24.3859 54.5758V40.9164C24.3858 40.6305 24.4691 40.3508 24.6256 40.1115C24.7822 39.8723 25.0051 39.6839 25.2672 39.5696L36.1124 34.8402L37.3917 37.4839L28.2003 41.4922C27.9382 41.6065 27.7152 41.7949 27.5587 42.0341C27.4022 42.2734 27.3189 42.5531 27.319 42.839V54.6757C27.319 55.0652 27.4737 55.4388 27.7492 55.7142C28.0246 55.9897 28.3982 56.1444 28.7878 56.1444H34.9976C35.21 56.1432 35.4201 56.1885 35.6132 56.277C35.8063 56.3656 35.9777 56.4952 36.1153 56.657L40.9519 62.6333C41.2034 62.9309 41.3263 63.3163 41.2937 63.7045C41.261 64.0927 41.0755 64.4521 40.7779 64.7035C40.4803 64.955 40.095 65.0779 39.7067 65.0453C39.3185 65.0126 38.9591 64.8271 38.7077 64.5295L34.77 59.6312C34.6323 59.4602 34.4581 59.3222 34.2601 59.2274C34.0621 59.1326 33.8453 59.0834 33.6258 59.0834L28.5293 59.0819ZM44.1303 62.7156C43.9974 62.0009 43.6868 61.3311 43.227 60.768L38.3904 54.7932C37.9773 54.2954 37.4594 53.8951 36.8737 53.6206C36.288 53.3462 35.6489 53.2044 35.002 53.2054H30.2565V43.8054L43.2109 38.1566C43.4078 38.0648 43.5978 37.9588 43.7793 37.8394C45.7096 41.4982 48.6038 44.5595 52.1486 46.6919C55.6935 48.8243 59.7541 49.9466 63.8909 49.9375C64.2169 49.9375 64.5342 49.9022 64.8573 49.889L44.1303 62.7156ZM47.7655 7.34372C49.0727 7.34372 50.3505 7.73135 51.4374 8.4576C52.5243 9.18384 53.3715 10.2161 53.8717 11.4238C54.372 12.6315 54.5029 13.9604 54.2478 15.2425C53.9928 16.5246 53.3633 17.7023 52.439 18.6266C51.5147 19.551 50.337 20.1804 49.0549 20.4355C47.7728 20.6905 46.4439 20.5596 45.2362 20.0594C44.0285 19.5591 42.9962 18.712 42.27 17.6251C41.5437 16.5382 41.1561 15.2603 41.1561 13.9531C41.1596 12.2012 41.8571 10.5222 43.0958 9.28342C44.3345 8.04467 46.0136 7.34721 47.7655 7.34372ZM47.7655 23.5132C49.4576 23.5166 51.1202 23.0696 52.5824 22.218C54.0447 21.3665 55.254 20.1411 56.0861 18.6677C56.9182 17.1943 57.3431 15.5259 57.3173 13.834C57.2915 12.142 56.8158 10.4874 55.9391 9.04012C59.5294 7.46792 63.5054 6.99598 67.364 7.684C71.2226 8.37202 74.7904 10.1891 77.616 12.9053C80.4417 15.6215 82.3982 19.1149 83.238 22.9433C84.0778 26.7717 83.7632 30.7632 82.334 34.4128C80.9047 38.0624 78.4251 41.2061 75.2088 43.446C71.9925 45.686 68.184 46.9217 64.2653 46.9967C60.3465 47.0717 56.4936 45.9826 53.1939 43.8674C49.8942 41.7521 47.2961 38.7056 45.7283 35.1134C45.9526 34.1919 45.8701 33.2224 45.4933 32.3521C45.2436 31.786 44.8779 31.2786 44.4197 30.8628C43.9105 28.2399 43.946 25.5402 44.5239 22.9316C45.5624 23.3126 46.6593 23.5094 47.7655 23.5132ZM40.8697 32.7663C41.2263 32.6129 41.6291 32.6069 41.9901 32.7496C42.3511 32.8924 42.6409 33.1722 42.7962 33.528C42.9515 33.8838 42.9596 34.2866 42.8188 34.6483C42.678 35.0101 42.3997 35.3014 42.0447 35.4585L40.0898 36.3104L38.8105 33.6667L40.8697 32.7663ZM16.0008 30.6733C16.0263 28.9943 16.7111 27.3926 17.9075 26.2142C19.1039 25.0358 20.7158 24.3753 22.395 24.3753C24.0743 24.3753 25.6861 25.0358 26.8825 26.2142C28.0789 27.3926 28.7638 28.9943 28.7892 30.6733C28.4778 39.1216 16.2564 39.104 16.0008 30.6733ZM19.6227 74.7917L23.512 66.0394C23.576 65.8934 23.6167 65.7383 23.6324 65.5797L24.1318 60.2011C24.9068 60.9777 25.8737 61.5352 26.9342 61.8167L26.5288 66.1246C26.1616 67.0969 23.8175 72.5166 22.3502 75.88C22.1994 76.2323 21.9169 76.5117 21.5629 76.6585C21.2089 76.8054 20.8116 76.8081 20.4557 76.6661C20.0997 76.5241 19.8134 76.2485 19.6578 75.8984C19.5022 75.5482 19.4896 75.151 19.6227 74.7917ZM29.4399 66.5667L29.8658 62.0135H32.9223L36.4399 66.3875C36.6442 66.6332 36.8747 66.8558 37.1273 67.0513L26.5523 73.602C29.3914 67.0425 29.4149 66.8281 29.4399 66.5696V66.5667ZM86.6565 86.6562H11.0394L86.6565 39.8501V86.6562Z"/>
</mask>
<path d="M88.8391 35.93C88.6107 35.8029 88.3526 35.739 88.0913 35.7449C87.83 35.7509 87.575 35.8264 87.3527 35.9638L83.8277 38.1493C86.1627 33.9176 87.0895 29.0523 86.4739 24.2585C85.8583 19.4647 83.7323 14.9914 80.4039 11.487C77.0755 7.98251 72.7177 5.62891 67.962 4.76724C63.2062 3.90557 58.2997 4.58061 53.9533 6.69453C52.9902 5.85171 51.8674 5.21115 50.6517 4.81093C49.4361 4.41072 48.1524 4.25902 46.8769 4.36485C45.6015 4.47068 44.3603 4.83189 43.2272 5.42699C42.0942 6.0221 41.0923 6.83895 40.2813 7.82899C39.4702 8.81902 38.8665 9.96203 38.506 11.1901C38.1455 12.4181 38.0356 13.7061 38.1829 14.9774C38.3301 16.2487 38.7315 17.4775 39.3631 18.5906C39.9948 19.7037 40.8437 20.6785 41.8596 21.4569C41.1443 24.1481 40.9449 26.9504 41.2721 29.7157C40.7261 29.7353 40.1886 29.8568 39.6873 30.0741L31.1803 33.7812C31.829 31.9483 31.8885 29.9584 31.3505 28.09C30.8125 26.2216 29.7039 24.5681 28.1798 23.3607C26.6558 22.1534 24.7924 21.4527 22.8505 21.3566C20.9085 21.2604 18.9851 21.7737 17.3492 22.8247C15.7134 23.8756 14.4469 25.4116 13.7271 27.2177C13.0072 29.0239 12.8699 31.0099 13.3344 32.8979C13.7989 34.786 14.8419 36.4816 16.3176 37.7476C17.7932 39.0137 19.6277 39.7868 21.5644 39.9588C21.4909 40.2713 21.452 40.591 21.4484 40.912V57.3326L20.7287 65.0656L16.9232 73.6328C16.553 74.5112 16.4818 75.4869 16.7207 76.4097C16.9596 77.3325 17.4952 78.1512 18.2451 78.7397L5.10269 86.8751C4.83059 87.043 4.62071 87.2951 4.50494 87.5932C4.38916 87.8912 4.37381 88.2189 4.46121 88.5264C4.54861 88.834 4.73399 89.1047 4.9892 89.2973C5.24441 89.4899 5.55551 89.594 5.87525 89.5937H88.1253C88.5148 89.5937 88.8884 89.439 89.1638 89.1635C89.4393 88.8881 89.594 88.5145 89.594 88.125V37.2137C89.594 36.9518 89.524 36.6948 89.3913 36.4691C89.2586 36.2434 89.0679 36.0572 88.8391 35.93ZM28.5293 59.0819C25.4522 59.0819 24.5298 55.2793 24.3859 54.5758V40.9164C24.3858 40.6305 24.4691 40.3508 24.6256 40.1115C24.7822 39.8723 25.0051 39.6839 25.2672 39.5696L36.1124 34.8402L37.3917 37.4839L28.2003 41.4922C27.9382 41.6065 27.7152 41.7949 27.5587 42.0341C27.4022 42.2734 27.3189 42.5531 27.319 42.839V54.6757C27.319 55.0652 27.4737 55.4388 27.7492 55.7142C28.0246 55.9897 28.3982 56.1444 28.7878 56.1444H34.9976C35.21 56.1432 35.4201 56.1885 35.6132 56.277C35.8063 56.3656 35.9777 56.4952 36.1153 56.657L40.9519 62.6333C41.2034 62.9309 41.3263 63.3163 41.2937 63.7045C41.261 64.0927 41.0755 64.4521 40.7779 64.7035C40.4803 64.955 40.095 65.0779 39.7067 65.0453C39.3185 65.0126 38.9591 64.8271 38.7077 64.5295L34.77 59.6312C34.6323 59.4602 34.4581 59.3222 34.2601 59.2274C34.0621 59.1326 33.8453 59.0834 33.6258 59.0834L28.5293 59.0819ZM44.1303 62.7156C43.9974 62.0009 43.6868 61.3311 43.227 60.768L38.3904 54.7932C37.9773 54.2954 37.4594 53.8951 36.8737 53.6206C36.288 53.3462 35.6489 53.2044 35.002 53.2054H30.2565V43.8054L43.2109 38.1566C43.4078 38.0648 43.5978 37.9588 43.7793 37.8394C45.7096 41.4982 48.6038 44.5595 52.1486 46.6919C55.6935 48.8243 59.7541 49.9466 63.8909 49.9375C64.2169 49.9375 64.5342 49.9022 64.8573 49.889L44.1303 62.7156ZM47.7655 7.34372C49.0727 7.34372 50.3505 7.73135 51.4374 8.4576C52.5243 9.18384 53.3715 10.2161 53.8717 11.4238C54.372 12.6315 54.5029 13.9604 54.2478 15.2425C53.9928 16.5246 53.3633 17.7023 52.439 18.6266C51.5147 19.551 50.337 20.1804 49.0549 20.4355C47.7728 20.6905 46.4439 20.5596 45.2362 20.0594C44.0285 19.5591 42.9962 18.712 42.27 17.6251C41.5437 16.5382 41.1561 15.2603 41.1561 13.9531C41.1596 12.2012 41.8571 10.5222 43.0958 9.28342C44.3345 8.04467 46.0136 7.34721 47.7655 7.34372ZM47.7655 23.5132C49.4576 23.5166 51.1202 23.0696 52.5824 22.218C54.0447 21.3665 55.254 20.1411 56.0861 18.6677C56.9182 17.1943 57.3431 15.5259 57.3173 13.834C57.2915 12.142 56.8158 10.4874 55.9391 9.04012C59.5294 7.46792 63.5054 6.99598 67.364 7.684C71.2226 8.37202 74.7904 10.1891 77.616 12.9053C80.4417 15.6215 82.3982 19.1149 83.238 22.9433C84.0778 26.7717 83.7632 30.7632 82.334 34.4128C80.9047 38.0624 78.4251 41.2061 75.2088 43.446C71.9925 45.686 68.184 46.9217 64.2653 46.9967C60.3465 47.0717 56.4936 45.9826 53.1939 43.8674C49.8942 41.7521 47.2961 38.7056 45.7283 35.1134C45.9526 34.1919 45.8701 33.2224 45.4933 32.3521C45.2436 31.786 44.8779 31.2786 44.4197 30.8628C43.9105 28.2399 43.946 25.5402 44.5239 22.9316C45.5624 23.3126 46.6593 23.5094 47.7655 23.5132ZM40.8697 32.7663C41.2263 32.6129 41.6291 32.6069 41.9901 32.7496C42.3511 32.8924 42.6409 33.1722 42.7962 33.528C42.9515 33.8838 42.9596 34.2866 42.8188 34.6483C42.678 35.0101 42.3997 35.3014 42.0447 35.4585L40.0898 36.3104L38.8105 33.6667L40.8697 32.7663ZM16.0008 30.6733C16.0263 28.9943 16.7111 27.3926 17.9075 26.2142C19.1039 25.0358 20.7158 24.3753 22.395 24.3753C24.0743 24.3753 25.6861 25.0358 26.8825 26.2142C28.0789 27.3926 28.7638 28.9943 28.7892 30.6733C28.4778 39.1216 16.2564 39.104 16.0008 30.6733ZM19.6227 74.7917L23.512 66.0394C23.576 65.8934 23.6167 65.7383 23.6324 65.5797L24.1318 60.2011C24.9068 60.9777 25.8737 61.5352 26.9342 61.8167L26.5288 66.1246C26.1616 67.0969 23.8175 72.5166 22.3502 75.88C22.1994 76.2323 21.9169 76.5117 21.5629 76.6585C21.2089 76.8054 20.8116 76.8081 20.4557 76.6661C20.0997 76.5241 19.8134 76.2485 19.6578 75.8984C19.5022 75.5482 19.4896 75.151 19.6227 74.7917ZM29.4399 66.5667L29.8658 62.0135H32.9223L36.4399 66.3875C36.6442 66.6332 36.8747 66.8558 37.1273 67.0513L26.5523 73.602C29.3914 67.0425 29.4149 66.8281 29.4399 66.5696V66.5667ZM86.6565 86.6562H11.0394L86.6565 39.8501V86.6562Z" fill="#393939"/>
<path d="M88.8391 35.93C88.6107 35.8029 88.3526 35.739 88.0913 35.7449C87.83 35.7509 87.575 35.8264 87.3527 35.9638L83.8277 38.1493C86.1627 33.9176 87.0895 29.0523 86.4739 24.2585C85.8583 19.4647 83.7323 14.9914 80.4039 11.487C77.0755 7.98251 72.7177 5.62891 67.962 4.76724C63.2062 3.90557 58.2997 4.58061 53.9533 6.69453C52.9902 5.85171 51.8674 5.21115 50.6517 4.81093C49.4361 4.41072 48.1524 4.25902 46.8769 4.36485C45.6015 4.47068 44.3603 4.83189 43.2272 5.42699C42.0942 6.0221 41.0923 6.83895 40.2813 7.82899C39.4702 8.81902 38.8665 9.96203 38.506 11.1901C38.1455 12.4181 38.0356 13.7061 38.1829 14.9774C38.3301 16.2487 38.7315 17.4775 39.3631 18.5906C39.9948 19.7037 40.8437 20.6785 41.8596 21.4569C41.1443 24.1481 40.9449 26.9504 41.2721 29.7157C40.7261 29.7353 40.1886 29.8568 39.6873 30.0741L31.1803 33.7812C31.829 31.9483 31.8885 29.9584 31.3505 28.09C30.8125 26.2216 29.7039 24.5681 28.1798 23.3607C26.6558 22.1534 24.7924 21.4527 22.8505 21.3566C20.9085 21.2604 18.9851 21.7737 17.3492 22.8247C15.7134 23.8756 14.4469 25.4116 13.7271 27.2177C13.0072 29.0239 12.8699 31.0099 13.3344 32.8979C13.7989 34.786 14.8419 36.4816 16.3176 37.7476C17.7932 39.0137 19.6277 39.7868 21.5644 39.9588C21.4909 40.2713 21.452 40.591 21.4484 40.912V57.3326L20.7287 65.0656L16.9232 73.6328C16.553 74.5112 16.4818 75.4869 16.7207 76.4097C16.9596 77.3325 17.4952 78.1512 18.2451 78.7397L5.10269 86.8751C4.83059 87.043 4.62071 87.2951 4.50494 87.5932C4.38916 87.8912 4.37381 88.2189 4.46121 88.5264C4.54861 88.834 4.73399 89.1047 4.9892 89.2973C5.24441 89.4899 5.55551 89.594 5.87525 89.5937H88.1253C88.5148 89.5937 88.8884 89.439 89.1638 89.1635C89.4393 88.8881 89.594 88.5145 89.594 88.125V37.2137C89.594 36.9518 89.524 36.6948 89.3913 36.4691C89.2586 36.2434 89.0679 36.0572 88.8391 35.93ZM28.5293 59.0819C25.4522 59.0819 24.5298 55.2793 24.3859 54.5758V40.9164C24.3858 40.6305 24.4691 40.3508 24.6256 40.1115C24.7822 39.8723 25.0051 39.6839 25.2672 39.5696L36.1124 34.8402L37.3917 37.4839L28.2003 41.4922C27.9382 41.6065 27.7152 41.7949 27.5587 42.0341C27.4022 42.2734 27.3189 42.5531 27.319 42.839V54.6757C27.319 55.0652 27.4737 55.4388 27.7492 55.7142C28.0246 55.9897 28.3982 56.1444 28.7878 56.1444H34.9976C35.21 56.1432 35.4201 56.1885 35.6132 56.277C35.8063 56.3656 35.9777 56.4952 36.1153 56.657L40.9519 62.6333C41.2034 62.9309 41.3263 63.3163 41.2937 63.7045C41.261 64.0927 41.0755 64.4521 40.7779 64.7035C40.4803 64.955 40.095 65.0779 39.7067 65.0453C39.3185 65.0126 38.9591 64.8271 38.7077 64.5295L34.77 59.6312C34.6323 59.4602 34.4581 59.3222 34.2601 59.2274C34.0621 59.1326 33.8453 59.0834 33.6258 59.0834L28.5293 59.0819ZM44.1303 62.7156C43.9974 62.0009 43.6868 61.3311 43.227 60.768L38.3904 54.7932C37.9773 54.2954 37.4594 53.8951 36.8737 53.6206C36.288 53.3462 35.6489 53.2044 35.002 53.2054H30.2565V43.8054L43.2109 38.1566C43.4078 38.0648 43.5978 37.9588 43.7793 37.8394C45.7096 41.4982 48.6038 44.5595 52.1486 46.6919C55.6935 48.8243 59.7541 49.9466 63.8909 49.9375C64.2169 49.9375 64.5342 49.9022 64.8573 49.889L44.1303 62.7156ZM47.7655 7.34372C49.0727 7.34372 50.3505 7.73135 51.4374 8.4576C52.5243 9.18384 53.3715 10.2161 53.8717 11.4238C54.372 12.6315 54.5029 13.9604 54.2478 15.2425C53.9928 16.5246 53.3633 17.7023 52.439 18.6266C51.5147 19.551 50.337 20.1804 49.0549 20.4355C47.7728 20.6905 46.4439 20.5596 45.2362 20.0594C44.0285 19.5591 42.9962 18.712 42.27 17.6251C41.5437 16.5382 41.1561 15.2603 41.1561 13.9531C41.1596 12.2012 41.8571 10.5222 43.0958 9.28342C44.3345 8.04467 46.0136 7.34721 47.7655 7.34372ZM47.7655 23.5132C49.4576 23.5166 51.1202 23.0696 52.5824 22.218C54.0447 21.3665 55.254 20.1411 56.0861 18.6677C56.9182 17.1943 57.3431 15.5259 57.3173 13.834C57.2915 12.142 56.8158 10.4874 55.9391 9.04012C59.5294 7.46792 63.5054 6.99598 67.364 7.684C71.2226 8.37202 74.7904 10.1891 77.616 12.9053C80.4417 15.6215 82.3982 19.1149 83.238 22.9433C84.0778 26.7717 83.7632 30.7632 82.334 34.4128C80.9047 38.0624 78.4251 41.2061 75.2088 43.446C71.9925 45.686 68.184 46.9217 64.2653 46.9967C60.3465 47.0717 56.4936 45.9826 53.1939 43.8674C49.8942 41.7521 47.2961 38.7056 45.7283 35.1134C45.9526 34.1919 45.8701 33.2224 45.4933 32.3521C45.2436 31.786 44.8779 31.2786 44.4197 30.8628C43.9105 28.2399 43.946 25.5402 44.5239 22.9316C45.5624 23.3126 46.6593 23.5094 47.7655 23.5132ZM40.8697 32.7663C41.2263 32.6129 41.6291 32.6069 41.9901 32.7496C42.3511 32.8924 42.6409 33.1722 42.7962 33.528C42.9515 33.8838 42.9596 34.2866 42.8188 34.6483C42.678 35.0101 42.3997 35.3014 42.0447 35.4585L40.0898 36.3104L38.8105 33.6667L40.8697 32.7663ZM16.0008 30.6733C16.0263 28.9943 16.7111 27.3926 17.9075 26.2142C19.1039 25.0358 20.7158 24.3753 22.395 24.3753C24.0743 24.3753 25.6861 25.0358 26.8825 26.2142C28.0789 27.3926 28.7638 28.9943 28.7892 30.6733C28.4778 39.1216 16.2564 39.104 16.0008 30.6733ZM19.6227 74.7917L23.512 66.0394C23.576 65.8934 23.6167 65.7383 23.6324 65.5797L24.1318 60.2011C24.9068 60.9777 25.8737 61.5352 26.9342 61.8167L26.5288 66.1246C26.1616 67.0969 23.8175 72.5166 22.3502 75.88C22.1994 76.2323 21.9169 76.5117 21.5629 76.6585C21.2089 76.8054 20.8116 76.8081 20.4557 76.6661C20.0997 76.5241 19.8134 76.2485 19.6578 75.8984C19.5022 75.5482 19.4896 75.151 19.6227 74.7917ZM29.4399 66.5667L29.8658 62.0135H32.9223L36.4399 66.3875C36.6442 66.6332 36.8747 66.8558 37.1273 67.0513L26.5523 73.602C29.3914 67.0425 29.4149 66.8281 29.4399 66.5696V66.5667ZM86.6565 86.6562H11.0394L86.6565 39.8501V86.6562Z" stroke="#393939" stroke-width="0.6" mask="url(#path-5-outside-1_101_283)"/>
</svg>
