<svg width="27" height="30" viewBox="0 0 27 30" fill="none" xmlns="http://www.w3.org/2000/svg">
<path d="M11.65 29.88H15.25C15.85 29.88 16.33 29.39 16.33 28.8V28.41H16.39C19.76 28.25 23.07 27.65 23.26 22.29V22.24H23.31C24.15 22.14 26.11 21.6 26.11 18.94V13.58C26.11 10.91 24.15 10.37 23.31 10.27H23.26V10.21C23.26 4.58 18.68 0 13.05 0C7.42 0 2.85 4.58 2.85 10.2V10.25H2.8C1.96 10.36 0 10.89 0 13.56V18.92C0 21.4 1.74 22.28 3.36 22.28H5.01C5.29 22.28 5.52 22.05 5.52 21.77V10.73C5.52 10.45 5.29 10.22 5.01 10.22H3.87V10.16C3.87 5.1 7.99 0.99 13.05 0.99C18.11 0.99 22.23 5.11 22.23 10.17V10.23H21.09C20.81 10.23 20.58 10.46 20.58 10.74V21.76C20.58 22.04 20.81 22.27 21.09 22.27H22.24V22.33C22.07 26.37 20.05 27.23 16.38 27.39H16.32V26.95C16.32 26.35 15.83 25.87 15.24 25.87H11.65C11.05 25.87 10.57 26.36 10.57 26.95V28.8C10.57 29.4 11.06 29.88 11.65 29.88ZM4.5 11.21V21.25H3.33C2.46 21.25 0.99 20.95 0.99 18.91V13.55C0.99 11.44 2.63 11.21 3.33 11.21H4.5ZM21.6 21.27V11.25H22.77C23.64 11.25 25.11 11.55 25.11 13.59L25.08 18.93C25.08 21.04 23.44 21.27 22.74 21.27H21.6ZM11.59 26.9H15.31V28.87H11.59V26.9Z" fill="#393939"/>
</svg>
