<svg width="27" height="30" viewBox="0 0 27 30" fill="none" xmlns="http://www.w3.org/2000/svg">
<path fill-rule="evenodd" clip-rule="evenodd" d="M13.13 3.76C14.17 3.76 15.01 2.92 15.01 1.88C15.01 0.84 14.17 0 13.13 0C12.09 0 11.25 0.84 11.25 1.88C11.25 2.92 12.09 3.76 13.13 3.76ZM13.13 0.95C13.64 0.95 14.06 1.37 14.06 1.88C14.06 2.39 13.64 2.81 13.13 2.81C12.62 2.81 12.2 2.39 12.2 1.88C12.2 1.37 12.62 0.95 13.13 0.95ZM12.42 6.73999L6.33002 10.26C5.90002 10.51 5.63 10.98 5.63 11.48V18.51C5.63 19.01 5.90001 19.48 6.34001 19.73L12.43 23.25C12.65 23.38 12.89 23.44 13.14 23.44C13.39 23.44 13.63 23.38 13.85 23.25L19.94 19.73C20.37 19.48 20.64 19.01 20.64 18.51V11.48C20.64 10.98 20.37 10.51 19.93 10.26L13.84 6.73999C13.41 6.48999 12.86 6.48999 12.43 6.73999H12.42ZM12.65 22.29L6.80002 18.91C6.66002 18.83 6.57001 18.67 6.57001 18.51V11.75L9.16002 13.25V15.47C9.16002 15.73 9.37 15.94 9.63 15.94C9.89001 15.94 10.1 15.73 10.1 15.47V13.79L12.64 15.26V22.28L12.65 22.29ZM19.45 11.08C19.59 11.16 19.68 11.32 19.68 11.48V18.51C19.68 18.67 19.59 18.83 19.45 18.91L13.6 22.29V15.27L18.43 12.48C18.66 12.35 18.73 12.06 18.6 11.83C18.47 11.6 18.18 11.53 17.95 11.66L13.12 14.45L10.57 12.98L16.65 9.46999L19.45 11.09V11.08ZM9.63 12.43L7.05002 10.94L12.9 7.55999C13.04 7.47999 13.22 7.47999 13.36 7.55999L15.71 8.90999L9.63 12.42V12.43ZM26.26 8.44006C26.26 9.48006 25.42 10.3201 24.38 10.3201C23.34 10.3201 22.5 9.48006 22.5 8.44006C22.5 7.40006 23.34 6.56006 24.38 6.56006C25.42 6.56006 26.26 7.40006 26.26 8.44006ZM25.31 8.44006C25.31 7.93006 24.89 7.51006 24.38 7.51006C23.87 7.51006 23.45 7.93006 23.45 8.44006C23.45 8.95006 23.87 9.37006 24.38 9.37006C24.89 9.37006 25.31 8.95006 25.31 8.44006ZM24.38 19.6799C23.34 19.6799 22.5 20.5199 22.5 21.5599C22.5 22.5999 23.34 23.4399 24.38 23.4399C25.42 23.4399 26.26 22.5999 26.26 21.5599C26.26 20.5199 25.42 19.6799 24.38 19.6799ZM24.38 22.4899C23.87 22.4899 23.45 22.0699 23.45 21.5599C23.45 21.0499 23.87 20.6299 24.38 20.6299C24.89 20.6299 25.31 21.0499 25.31 21.5599C25.31 22.0699 24.89 22.4899 24.38 22.4899ZM11.25 28.12C11.25 27.08 12.09 26.24 13.13 26.24C14.17 26.24 15.01 27.08 15.01 28.12C15.01 29.16 14.17 30 13.13 30C12.09 30 11.25 29.16 11.25 28.12ZM12.2 28.12C12.2 28.63 12.62 29.05 13.13 29.05C13.64 29.05 14.06 28.63 14.06 28.12C14.06 27.61 13.64 27.19 13.13 27.19C12.62 27.19 12.2 27.61 12.2 28.12ZM1.87999 19.6799C0.83999 19.6799 0 20.5199 0 21.5599C0 22.5999 0.83999 23.4399 1.87999 23.4399C2.91999 23.4399 3.75999 22.5999 3.75999 21.5599C3.75999 20.5199 2.91999 19.6799 1.87999 19.6799ZM1.87999 22.4899C1.36999 22.4899 0.949997 22.0699 0.949997 21.5599C0.949997 21.0499 1.36999 20.6299 1.87999 20.6299C2.38999 20.6299 2.81 21.0499 2.81 21.5599C2.81 22.0699 2.38999 22.4899 1.87999 22.4899ZM0 8.44006C0 7.40006 0.83999 6.56006 1.87999 6.56006C2.91999 6.56006 3.75999 7.40006 3.75999 8.44006C3.75999 9.48006 2.91999 10.3201 1.87999 10.3201C0.83999 10.3201 0 9.48006 0 8.44006ZM0.949997 8.44006C0.949997 8.95006 1.36999 9.37006 1.87999 9.37006C2.38999 9.37006 2.81 8.95006 2.81 8.44006C2.81 7.93006 2.38999 7.51006 1.87999 7.51006C1.36999 7.51006 0.949997 7.93006 0.949997 8.44006ZM4.69003 7.23C4.77003 7.23 4.85002 7.21 4.93002 7.17L10.53 3.94C10.76 3.81 10.83 3.52 10.7 3.29C10.57 3.06 10.28 2.99 10.05 3.12L4.45003 6.35C4.22003 6.48 4.15003 6.77 4.28003 7C4.37003 7.15 4.53003 7.24 4.69003 7.24V7.23ZM16.2 3.10998L21.8 6.33998V6.32998C22.02 6.45998 22.1 6.74998 21.97 6.97998C21.88 7.12998 21.72 7.21998 21.56 7.21998C21.48 7.21998 21.39 7.19998 21.32 7.15998L15.72 3.92998C15.5 3.79998 15.42 3.50998 15.55 3.27998C15.68 3.05998 15.98 2.97998 16.2 3.10998ZM24.02 11.71V18.28C24.02 18.54 24.23 18.75 24.49 18.75C24.75 18.75 24.96 18.54 24.96 18.28V11.71C24.96 11.45 24.75 11.24 24.49 11.24C24.23 11.24 24.02 11.45 24.02 11.71ZM15.7299 26.07L21.3299 22.84V22.85C21.5599 22.72 21.8499 22.79 21.9799 23.02C22.1099 23.25 22.0399 23.54 21.8099 23.67L16.2099 26.9C16.1299 26.94 16.0499 26.96 15.9699 26.96C15.8099 26.96 15.6499 26.87 15.5599 26.72C15.4299 26.49 15.4999 26.2 15.7299 26.07ZM10.53 26.07L4.93001 22.84C4.70001 22.71 4.41002 22.79 4.28002 23.01C4.15002 23.24 4.23002 23.53 4.45002 23.66L10.05 26.89C10.12 26.93 10.21 26.95 10.29 26.95C10.45 26.95 10.61 26.87 10.7 26.71C10.83 26.48 10.75 26.19 10.53 26.06V26.07ZM2.24004 11.72V18.29C2.24004 18.55 2.03005 18.76 1.77005 18.76C1.51005 18.76 1.30005 18.55 1.30005 18.29V11.72C1.30005 11.46 1.51005 11.25 1.77005 11.25C2.03005 11.25 2.24004 11.46 2.24004 11.72Z" fill="#393939"/>
</svg>
