<svg width="40" height="40" viewBox="0 0 40 40" fill="none" xmlns="http://www.w3.org/2000/svg">
<rect width="40" height="40" rx="5" fill="#FCFCFC"/>
<path d="M23.9891 10.3199L19.1791 13.0999C18.8391 13.2999 18.6191 13.6699 18.6191 14.0599V19.6099C18.6191 20.0099 18.8291 20.3799 19.1791 20.5699L23.9891 23.3499C24.1591 23.4499 24.3491 23.4999 24.5491 23.4999C24.7491 23.4999 24.9391 23.4499 25.1091 23.3499L29.9191 20.5699C30.2591 20.3699 30.4791 19.9999 30.4791 19.6099V14.0599C30.4791 13.6599 30.2691 13.2899 29.9191 13.0999L25.1091 10.3199C24.7691 10.1199 24.3391 10.1199 23.9991 10.3199H23.9891ZM24.1691 22.5999L19.5491 19.9299C19.4391 19.8599 19.3691 19.7399 19.3691 19.6099V14.2799L21.4191 15.4599V17.2199C21.4191 17.4299 21.5891 17.5899 21.7891 17.5899C21.9891 17.5899 22.1591 17.4199 22.1591 17.2199V15.8999L24.1691 17.0599V22.5999ZM29.5391 13.7499C29.6491 13.8199 29.7191 13.9399 29.7191 14.0699V19.6199C29.7191 19.7499 29.6491 19.8699 29.5391 19.9399L24.9191 22.6099V17.0699L28.7291 14.8699C28.9091 14.7699 28.9691 14.5399 28.8691 14.3599C28.7691 14.1799 28.5391 14.1199 28.3591 14.2199L24.5491 16.4199L22.5291 15.2599L27.3291 12.4899L29.5391 13.7699V13.7499ZM21.7791 14.8199L19.7391 13.6399L24.3591 10.9699C24.4691 10.9099 24.6091 10.9099 24.7291 10.9699L26.5791 12.0399L21.7791 14.8099V14.8199Z" fill="#393939" stroke="#393939" stroke-width="0.2"/>
<path d="M24.5503 7.97001C25.3703 7.97001 26.0303 7.30001 26.0303 6.49001C26.0303 5.68001 25.3603 5.01001 24.5503 5.01001C23.7403 5.01001 23.0703 5.68001 23.0703 6.49001C23.0703 7.30001 23.7403 7.97001 24.5503 7.97001ZM24.5503 5.75001C24.9603 5.75001 25.2903 6.08001 25.2903 6.49001C25.2903 6.90001 24.9603 7.23001 24.5503 7.23001C24.1403 7.23001 23.8103 6.90001 23.8103 6.49001C23.8103 6.08001 24.1403 5.75001 24.5503 5.75001Z" fill="#393939" stroke="#393939" stroke-width="0.2"/>
<path d="M33.4195 13.1499C34.2395 13.1499 34.8995 12.4799 34.8995 11.6699C34.8995 10.8599 34.2295 10.1899 33.4195 10.1899C32.6095 10.1899 31.9395 10.8599 31.9395 11.6699C31.9395 12.4799 32.6095 13.1499 33.4195 13.1499ZM33.4195 10.9299C33.8295 10.9299 34.1595 11.2599 34.1595 11.6699C34.1595 12.0799 33.8295 12.4099 33.4195 12.4099C33.0095 12.4099 32.6795 12.0799 32.6795 11.6699C32.6795 11.2599 33.0095 10.9299 33.4195 10.9299Z" fill="#393939" stroke="#393939" stroke-width="0.2"/>
<path d="M33.4195 20.54C32.5995 20.54 31.9395 21.21 31.9395 22.02C31.9395 22.83 32.6095 23.5 33.4195 23.5C34.2295 23.5 34.8995 22.83 34.8995 22.02C34.8995 21.21 34.2295 20.54 33.4195 20.54ZM33.4195 22.76C33.0095 22.76 32.6795 22.43 32.6795 22.02C32.6795 21.61 33.0095 21.28 33.4195 21.28C33.8295 21.28 34.1595 21.61 34.1595 22.02C34.1595 22.43 33.8295 22.76 33.4195 22.76Z" fill="#393939" stroke="#393939" stroke-width="0.2"/>
<path d="M24.5503 25.71C23.7303 25.71 23.0703 26.38 23.0703 27.19C23.0703 28 23.7403 28.67 24.5503 28.67C25.3603 28.67 26.0303 28 26.0303 27.19C26.0303 26.38 25.3603 25.71 24.5503 25.71ZM24.5503 27.93C24.1403 27.93 23.8103 27.6 23.8103 27.19C23.8103 26.78 24.1403 26.45 24.5503 26.45C24.9603 26.45 25.2903 26.78 25.2903 27.19C25.2903 27.6 24.9603 27.93 24.5503 27.93Z" fill="#393939" stroke="#393939" stroke-width="0.2"/>
<path d="M15.6695 13.1499C16.4895 13.1499 17.1495 12.4799 17.1495 11.6699C17.1495 10.8599 16.4795 10.1899 15.6695 10.1899C14.8595 10.1899 14.1895 10.8599 14.1895 11.6699C14.1895 12.4799 14.8595 13.1499 15.6695 13.1499ZM15.6695 10.9299C16.0795 10.9299 16.4095 11.2599 16.4095 11.6699C16.4095 12.0799 16.0795 12.4099 15.6695 12.4099C15.2595 12.4099 14.9295 12.0799 14.9295 11.6699C14.9295 11.2599 15.2595 10.9299 15.6695 10.9299Z" fill="#393939" stroke="#393939" stroke-width="0.2"/>
<path d="M17.8897 10.7C17.9497 10.7 18.0197 10.68 18.0797 10.65L22.4997 8.10003C22.6797 8.00003 22.7397 7.77003 22.6397 7.59003C22.5397 7.41003 22.3097 7.35003 22.1297 7.45003L17.7097 10C17.5297 10.1 17.4697 10.33 17.5697 10.51C17.6397 10.63 17.7597 10.7 17.8897 10.7Z" fill="#393939" stroke="#393939" stroke-width="0.2"/>
<path d="M31.3903 10.01L26.9703 7.46004C26.7903 7.36004 26.5603 7.42004 26.4603 7.60004C26.3603 7.78004 26.4203 8.01004 26.6003 8.11004L31.0203 10.66C31.0803 10.69 31.1403 10.71 31.2103 10.71C31.3403 10.71 31.4603 10.64 31.5303 10.52C31.6303 10.34 31.5703 10.11 31.3903 10.01Z" fill="#393939" stroke="#393939" stroke-width="0.2"/>
<path d="M33.1406 14.2499V19.4399C33.1406 19.6499 33.3106 19.8099 33.5106 19.8099C33.7106 19.8099 33.8806 19.6399 33.8806 19.4399V14.2499C33.8806 14.0399 33.7106 13.8799 33.5106 13.8799C33.3106 13.8799 33.1406 14.0499 33.1406 14.2499Z" fill="#393939" stroke="#393939" stroke-width="0.2"/>
<path d="M31.0203 23.0301L26.6003 25.5801C26.4203 25.6801 26.3603 25.9101 26.4603 26.0901C26.5303 26.2101 26.6503 26.2801 26.7803 26.2801C26.8403 26.2801 26.9103 26.2601 26.9703 26.2301L31.3903 23.6801C31.5703 23.5801 31.6303 23.3501 31.5303 23.1701C31.4303 22.9901 31.2003 22.9301 31.0203 23.0301Z" fill="#393939" stroke="#393939" stroke-width="0.2"/>
<path d="M22.4899 25.5801L18.0699 23.0301C17.8899 22.9301 17.6599 22.9901 17.5599 23.1701C17.4599 23.3501 17.5199 23.5801 17.6999 23.6801L22.1199 26.2301C22.1799 26.2601 22.2399 26.2801 22.3099 26.2801C22.4399 26.2801 22.5599 26.2101 22.6299 26.0901C22.7299 25.9101 22.6699 25.6801 22.4899 25.5801Z" fill="#393939" stroke="#393939" stroke-width="0.2"/>
<path d="M16.5593 25.3701L15.3793 25.1501C15.2793 24.8201 15.0593 24.5301 14.7693 24.3501L14.3493 24.1001L14.5593 23.9701C15.5893 23.3301 16.2093 22.2101 16.2093 21.0001H16.3893C17.0693 21.0001 17.6193 20.4501 17.6193 19.7701V16.4401C17.6193 15.0901 16.5193 13.9901 15.1693 13.9901H14.9893C14.2593 13.1101 13.1693 12.5901 12.0193 12.5901C9.3093 12.5901 7.1193 14.7901 7.1193 17.4901V22.0401C7.1193 22.6201 7.5893 23.0901 8.1693 23.0901H9.2193C9.4793 23.4401 9.7993 23.7301 10.1693 23.9601L10.3793 24.0901L9.9693 24.3401C9.6693 24.5201 9.4493 24.8101 9.3493 25.1401L8.1693 25.3601C6.3493 25.7001 5.0293 27.2901 5.0293 29.1401V34.6401C5.0293 34.8301 5.1893 34.9901 5.3793 34.9901H19.3793C19.5693 34.9901 19.7293 34.8301 19.7293 34.6401V29.1401C19.7293 27.2901 18.4093 25.7001 16.5893 25.3601L16.5593 25.3701ZM14.3993 24.9501C14.7293 25.1501 14.8393 25.5801 14.6393 25.9101C14.6393 25.9101 14.6393 25.9101 14.6393 25.9201L13.6893 27.4401L12.8993 26.6501C13.5093 26.1801 13.9193 25.5001 14.0593 24.7401L14.4093 24.9501H14.3993ZM12.3493 27.0901L12.9293 27.6701L12.6493 28.3501H12.0693L11.7893 27.6701L12.3693 27.0901H12.3493ZM11.6093 25.3701C11.4793 25.1501 11.3993 24.9001 11.3493 24.6501C11.9993 24.9101 12.7193 24.9101 13.3593 24.6501C13.2393 25.2701 12.8793 25.8301 12.3493 26.1801C12.0393 25.9701 11.7893 25.7001 11.6093 25.3701ZM16.3793 20.2901H16.1993V19.2401H16.3793C16.6693 19.2401 16.9093 19.4801 16.9093 19.7701C16.9093 20.0601 16.6693 20.3001 16.3793 20.3001V20.2901ZM7.7993 19.2401C7.7993 19.0501 7.9593 18.8901 8.1493 18.8901H8.4993V20.9901H8.1493C7.9593 20.9901 7.7993 20.8301 7.7993 20.6401V19.2401ZM8.1493 22.3901C7.9593 22.3901 7.7993 22.2301 7.7993 22.0401V21.6301C7.9093 21.6701 8.0293 21.6901 8.1493 21.6901H8.5793C8.6293 21.9301 8.6993 22.1701 8.7993 22.3901H8.1593H8.1493ZM8.5593 18.1901H8.1493C8.0293 18.1901 7.9093 18.2101 7.7993 18.2501V17.4901C7.7993 15.1701 9.6793 13.2901 11.9993 13.2901C12.9893 13.2901 13.9193 13.7601 14.5193 14.5501C14.5893 14.6401 14.6893 14.6901 14.7993 14.6901H15.1493C16.1193 14.6901 16.8993 15.4701 16.8993 16.4401V18.6601C16.7393 18.5801 16.5593 18.5401 16.3693 18.5401H16.1893V18.3601C16.1893 17.7101 15.9293 17.0901 15.4693 16.6301L15.0393 16.2001C14.9293 16.0901 14.7593 16.0701 14.6193 16.1401C13.0693 17.0301 11.3093 17.4901 9.5193 17.4901C9.0793 17.4901 8.6893 17.7701 8.5493 18.1901H8.5593ZM10.1493 23.0901H10.5993C10.7893 23.0901 10.9493 22.9301 10.9493 22.7401C10.9493 22.5501 10.7893 22.3901 10.5993 22.3901H9.5693C9.3293 21.9701 9.1993 21.4801 9.1993 20.9901V18.5101C9.1993 18.3301 9.3493 18.1801 9.5293 18.1801C11.3493 18.1801 13.1393 17.7301 14.7393 16.8601L14.9893 17.1101C15.3193 17.4401 15.4993 17.8801 15.4993 18.3501V20.9801C15.4993 21.9501 15.0093 22.8501 14.1793 23.3601L13.4493 23.8201C12.7693 24.2401 11.9093 24.2401 11.2293 23.8201L10.4993 23.3601C10.3693 23.2801 10.2493 23.1801 10.1293 23.0801L10.1493 23.0901ZM9.9793 25.3801C10.0193 25.2001 10.1393 25.0401 10.2993 24.9401L10.6493 24.7301C10.7793 25.4901 11.1893 26.1701 11.8093 26.6401L11.0193 27.4301L10.0693 25.9101C9.9693 25.7501 9.9393 25.5601 9.9793 25.3801ZM7.7993 34.2901V31.1401C7.7993 30.9501 7.6393 30.7901 7.4493 30.7901C7.2593 30.7901 7.0993 30.9501 7.0993 31.1401V34.2901H5.6993V29.1401C5.6993 27.6201 6.7793 26.3201 8.2693 26.0401L9.2993 25.8501C9.3293 26.0001 9.3893 26.1401 9.4693 26.2801L10.6493 28.1701C10.7493 28.3301 10.9693 28.3801 11.1293 28.2801C11.1493 28.2701 11.1693 28.2501 11.1893 28.2301L11.2293 28.1901L11.4493 28.7301L10.6293 34.2901H7.7793H7.7993ZM11.3593 34.2901L12.1293 29.0401H12.5793L13.3493 34.2901H11.3593ZM19.0093 34.2901H17.6093V31.1401C17.6093 30.9501 17.4493 30.7901 17.2593 30.7901C17.0693 30.7901 16.9093 30.9501 16.9093 31.1401V34.2901H14.0593L13.2393 28.7301L13.4593 28.1901L13.4993 28.2301C13.6393 28.3701 13.8593 28.3701 13.9993 28.2301C14.0193 28.2101 14.0393 28.1901 14.0493 28.1701L15.2293 26.2801C15.3093 26.1501 15.3693 26.0001 15.3993 25.8501L16.4293 26.0401C17.9193 26.3201 18.9993 27.6201 18.9993 29.1401V34.2901H19.0093Z" fill="#393939" stroke="#393939" stroke-width="0.2"/>
</svg>
