<svg width="96" height="94" viewBox="0 0 96 94" fill="none" xmlns="http://www.w3.org/2000/svg">
<path d="M77.1778 60.672L77.1778 60.6721C76.4809 61.9313 75.6919 63.1578 74.833 64.3171C74.268 65.0798 74.428 66.1562 75.1909 66.7213C75.9534 67.2861 77.0298 67.1262 77.595 66.3633C78.286 65.4307 78.9359 64.4588 79.5355 63.4624L86.4266 65.0352L86.4822 64.7915L86.4266 65.0352C87.2075 65.2133 88.0087 64.8284 88.3569 64.1066C89.8174 61.0803 90.9319 57.9075 91.6694 54.6766C92.4069 51.4453 92.7794 48.1033 92.7765 44.7432C92.7758 43.9418 92.2213 43.2472 91.4402 43.0689L84.5485 41.496C84.2571 38.2896 83.5438 35.1557 82.4206 32.1489L87.9425 27.7453C88.569 27.2458 88.7673 26.3793 88.4201 25.657C86.9644 22.6283 85.1789 19.7789 83.1126 17.188C81.0464 14.5969 78.6657 12.2221 76.0367 10.1289L76.0366 10.1289C75.4098 9.63009 74.521 9.63023 73.8946 10.1298L68.3641 14.5403C65.6775 12.7702 62.784 11.3749 59.7335 10.3784V3.30978C59.7335 2.50841 59.1796 1.8134 58.3986 1.63443L58.3428 1.87811L58.3986 1.63443C55.1234 0.883982 51.7822 0.503418 48.4678 0.503418C45.1535 0.503418 41.8122 0.883982 38.537 1.63443C37.7559 1.8134 37.2022 2.50844 37.2022 3.30978V10.3785C34.1519 11.3751 31.2581 12.7703 28.5715 14.5399L23.0409 10.1295C22.4141 9.62948 21.5257 9.62953 20.8988 10.1286L21.0545 10.3242L20.8988 10.1286C18.27 12.2215 15.8893 14.5964 13.823 17.1876C11.7566 19.7787 9.97106 22.6281 8.51559 25.6566C8.16839 26.379 8.3665 27.2452 8.99317 27.7449L14.5151 32.1485C13.3921 35.1555 12.6787 38.2894 12.3872 41.4956L5.49552 43.0686L5.55115 43.3123L5.49551 43.0686C4.71435 43.2469 4.15984 43.9414 4.1592 44.7428C4.15624 48.1029 4.52878 51.4449 5.26648 54.6762C6.00399 57.9075 7.11845 61.0803 8.57873 64.1063C8.927 64.8279 9.72772 65.2131 10.509 65.035L10.5091 65.035L17.4001 63.4622C17.9999 64.4591 18.6498 65.4311 19.3409 66.3634C19.6781 66.8185 20.1978 67.059 20.723 67.059C21.0786 67.059 21.4377 66.9488 21.7452 66.7211L21.5963 66.5202L21.7452 66.721C22.5078 66.1558 22.6679 65.0795 22.1029 64.3169C21.2442 63.1581 20.4553 61.9318 19.7581 60.6721L19.758 60.6721C19.3872 60.0024 18.6181 59.6587 17.8718 59.8288L17.8718 59.8288L11.1019 61.3739C10.0321 58.9578 9.19818 56.4536 8.618 53.9115L8.37427 53.9671L8.618 53.9115C8.03765 51.3696 7.70237 48.7513 7.61823 46.1104L14.3914 44.5643L14.3914 44.5643C15.1388 44.3935 15.683 43.7486 15.7251 42.9831C15.9292 39.2778 16.7509 35.6686 18.1675 32.2555L18.1675 32.2555C18.4612 31.5476 18.2509 30.7308 17.6516 30.253L12.2253 25.9256C13.4474 23.5827 14.8855 21.3691 16.5109 19.3307C18.1365 17.2921 19.9744 15.3978 21.9868 13.6851L27.4223 18.0196C28.0217 18.4976 28.8654 18.5211 29.49 18.0765C32.5122 15.9275 35.8448 14.3206 39.3961 13.3004L39.3962 13.3003C40.1328 13.0885 40.6403 12.4148 40.6403 11.6484V4.70217C43.2338 4.19667 45.8608 3.9411 48.4684 3.9411C51.076 3.9411 53.703 4.19684 56.2965 4.70218V11.6486C56.2965 12.4149 56.804 13.0889 57.5407 13.3005C61.092 14.3208 64.4249 15.9277 67.4466 18.0767C68.0715 18.5212 68.9149 18.4978 69.5143 18.0198L74.95 13.6853C76.9624 15.398 78.8004 17.2926 80.4259 19.3309C82.0513 21.3692 83.4894 23.5827 84.7115 25.9258L79.2854 30.2533C78.6859 30.7312 78.4758 31.5481 78.7695 32.256L78.7695 32.2561C80.1859 35.6688 81.0078 39.2778 81.2119 42.9834C81.254 43.749 81.798 44.3939 82.5455 44.5647L82.6012 44.3209L82.5456 44.5647L89.3187 46.1107C89.2344 48.7518 88.8991 51.3699 88.319 53.9118C87.7379 56.4533 86.9039 58.9577 85.8339 61.3739L79.0641 59.8288L79.0085 60.0726L79.0641 59.8288C78.3181 59.6587 77.5489 60.0022 77.1778 60.672Z" fill="#393939" stroke="#393939" stroke-width="0.5"/>
<path d="M54.5453 63.3952C53.6427 63.6895 53.1499 64.6597 53.4442 65.5621C53.6809 66.288 54.3544 66.7484 55.0779 66.7484C55.2549 66.7484 55.4346 66.7208 55.6111 66.6632C65.1051 63.5665 71.4844 54.7709 71.4844 44.7776C71.4844 32.0865 61.1599 21.762 48.4688 21.762C35.7776 21.762 25.4531 32.0865 25.4531 44.7776C25.4531 54.7709 31.8324 63.5665 41.3265 66.663C42.229 66.9577 43.1994 66.4641 43.4935 65.5619C43.7878 64.6595 43.2949 63.6893 42.3924 63.395C34.3163 60.7611 28.8906 53.2797 28.8906 44.7778C28.8906 33.9827 37.6736 25.1996 48.4688 25.1996C59.2639 25.1996 68.0469 33.9827 68.0469 44.7778C68.0469 53.2797 62.6212 60.7612 54.5453 63.3952Z" fill="#393939" stroke="#393939" stroke-width="0.5"/>
<path d="M13.9531 83.2152C15.3079 83.2152 16.4062 82.1169 16.4062 80.7621C16.4062 79.4073 15.3079 78.309 13.9531 78.309C12.5983 78.309 11.5 79.4073 11.5 80.7621C11.5 82.1169 12.5983 83.2152 13.9531 83.2152Z" fill="#393939" stroke="#393939" stroke-width="0.5"/>
<path d="M48.4688 83.2152C49.8236 83.2152 50.9219 82.1169 50.9219 80.7621C50.9219 79.4073 49.8236 78.309 48.4688 78.309C47.1139 78.309 46.0156 79.4073 46.0156 80.7621C46.0156 82.1169 47.1139 83.2152 48.4688 83.2152Z" fill="#393939" stroke="#393939" stroke-width="0.5"/>
<path d="M82.9838 68.0277C76.5445 68.0277 71.2106 72.8318 70.3683 79.0433H61.0834C60.2413 72.8318 54.9072 68.0277 48.468 68.0277C42.0287 68.0277 36.6948 72.8318 35.8525 79.0433H26.5676C25.7255 72.8318 20.3914 68.0277 13.9521 68.0277C6.93005 68.0277 1.21777 73.74 1.21777 80.7621C1.21777 87.7842 6.93005 93.4965 13.9521 93.4965C20.3914 93.4965 25.7255 88.6923 26.5676 82.4808H35.8525C36.6946 88.6923 42.0287 93.4965 48.468 93.4965C54.9072 93.4965 60.2413 88.6923 61.0834 82.4808H70.3683C71.2104 88.6923 76.5445 93.4965 82.9838 93.4965C90.0059 93.4965 95.7181 87.7842 95.7181 80.7621C95.7181 73.74 90.0059 68.0277 82.9838 68.0277ZM13.9525 90.059C8.8264 90.059 4.65564 85.8882 4.65564 80.7621C4.65564 75.636 8.8264 71.4652 13.9525 71.4652C19.0786 71.4652 23.2494 75.636 23.2494 80.7621C23.2494 85.8882 19.0786 90.059 13.9525 90.059ZM48.4681 90.059C43.342 90.059 39.1713 85.8882 39.1713 80.7621C39.1713 75.636 43.342 71.4652 48.4681 71.4652C53.5943 71.4652 57.765 75.636 57.765 80.7621C57.765 85.8882 53.5943 90.059 48.4681 90.059ZM82.9838 90.059C77.8577 90.059 73.6869 85.8882 73.6869 80.7621C73.6869 75.636 77.8577 71.4652 82.9838 71.4652C88.1099 71.4652 92.2806 75.636 92.2806 80.7621C92.2806 85.8882 88.1099 90.059 82.9838 90.059Z" fill="#393939" stroke="#393939" stroke-width="0.5"/>
<path d="M86.5424 76.9764L82.25 81.2688L80.1607 79.1795C79.4895 78.5084 78.4011 78.5084 77.7299 79.1795C77.0588 79.8507 77.0588 80.9391 77.7299 81.6103L81.0346 84.915C81.3702 85.2505 81.8104 85.4183 82.25 85.4183C82.6896 85.4183 83.1298 85.2505 83.4654 84.915L88.9732 79.4071C89.6444 78.736 89.6444 77.6476 88.9732 76.9764C88.302 76.3052 87.2136 76.3052 86.5424 76.9764Z" fill="#393939" stroke="#393939" stroke-width="0.5"/>
</svg>
