<svg width="40" height="40" viewBox="0 0 40 40" fill="none" xmlns="http://www.w3.org/2000/svg">
<rect width="40" height="40" rx="5" fill="#FCFCFC"/>
<path d="M25.5793 28.8699L22.4593 27.8299V26.5799C23.3893 25.9699 24.0593 24.9899 24.2993 23.8999H24.8393C25.6593 23.8999 26.3293 23.2299 26.3293 22.4099C26.3293 21.5899 25.6593 20.9199 24.8393 20.9199H24.6493L25.0993 19.7999C25.8693 17.8799 24.9293 15.6799 23.0093 14.9099C22.5593 14.7299 22.0893 14.6399 21.6093 14.6399H18.4293C17.4293 14.6399 16.4793 15.0299 15.7693 15.7399C15.0593 16.4499 14.6693 17.3899 14.6693 18.3999C14.6693 18.8799 14.7593 19.3499 14.9393 19.7999L15.3893 20.9199H15.1993C14.3793 20.9199 13.7093 21.5899 13.7093 22.4099C13.7093 23.2299 14.3793 23.8999 15.1993 23.8999H15.7593C16.0093 24.9699 16.6593 25.8999 17.5693 26.5199V27.8299L14.4493 28.8699C12.8493 29.3999 11.7793 30.8899 11.7793 32.5699V34.4799C11.7793 34.7699 12.0093 34.9999 12.2993 34.9999H27.7393C28.0293 34.9999 28.2593 34.7699 28.2593 34.4799V32.5699C28.2593 30.8899 27.1893 29.3999 25.5893 28.8699H25.5793ZM15.6193 21.9699V22.8599H15.1793C14.9393 22.8599 14.7393 22.6599 14.7393 22.4199C14.7393 22.1799 14.9393 21.9799 15.1793 21.9799H15.6193V21.9699ZM24.3093 32.5099V33.9599H21.8093L21.0493 32.0499L21.2793 31.3599L21.7093 31.5699C21.8393 31.6399 21.9993 31.6399 22.1293 31.5899C22.2693 31.5399 22.3793 31.4299 22.4293 31.2999L23.2693 29.1999L25.2593 29.8599C26.4293 30.2499 27.2093 31.3399 27.2093 32.5699V33.9599H25.3593V32.5099H24.3093ZM22.0793 28.7999L22.2693 28.8599L21.6593 30.3699L20.8893 29.9799L22.0793 28.7899V28.7999ZM21.5893 18.5499C21.4493 18.5099 21.2993 18.5399 21.1793 18.6099C21.0993 18.6599 21.0393 18.7199 20.9893 18.7999L20.6693 19.4399C20.3693 20.0499 19.7293 20.4499 19.0493 20.4499H16.3093L15.8993 19.4299C15.6293 18.7599 15.6393 18.0199 15.9293 17.3499C16.2193 16.6799 16.7393 16.1699 17.4193 15.8999C17.7393 15.7699 18.0793 15.7099 18.4293 15.7099H21.6093C23.1093 15.7099 24.3193 16.9299 24.3193 18.4199C24.3193 18.7699 24.2493 19.1099 24.1293 19.4299L23.7293 20.4399C23.0993 20.3899 22.5393 20.0099 22.2593 19.4499L21.9393 18.8099C21.8693 18.6899 21.7493 18.5999 21.6093 18.5599L21.5893 18.5499ZM16.6693 21.4899H19.0493C20.0193 21.4899 20.9293 20.9899 21.4493 20.1699C21.8793 20.8399 22.5593 21.2999 23.3393 21.4399V23.0099C23.3393 24.7799 21.8893 26.2299 20.1193 26.2299H20.0193C18.1793 26.2299 16.6793 24.7299 16.6693 22.8899V21.4799V21.4899ZM18.5993 27.0399C19.0593 27.1999 19.5393 27.2799 20.0293 27.2799H20.1293C20.5693 27.2799 20.9993 27.2099 21.4193 27.0799V27.9899L20.0093 29.3999L18.5993 27.9899V27.0399ZM17.9393 28.7999L19.1293 29.9899L18.3493 30.3799L17.7493 28.8699L17.9393 28.8099V28.7999ZM14.6593 32.5099V33.9599H12.8093V32.5699C12.8093 31.3399 13.5893 30.2499 14.7593 29.8599L16.7493 29.1999L17.5893 31.2999C17.6393 31.4399 17.7493 31.5399 17.8893 31.5899C18.0293 31.6399 18.1793 31.6399 18.3093 31.5699L18.7393 31.3599L18.9693 32.0499L18.2093 33.9499H15.7093V32.4999H14.6593V32.5099ZM20.0093 30.7199L20.3393 30.8799L20.1193 31.5399H19.9093L19.6893 30.8799L20.0193 30.7199H20.0093ZM19.8793 32.5899H20.1393L20.6893 33.9599H19.3393L19.8893 32.5899H19.8793ZM24.3893 22.8599V21.9699H24.8293C25.0693 21.9699 25.2693 22.1699 25.2693 22.4099C25.2693 22.6499 25.0693 22.8499 24.8293 22.8499H24.3893V22.8599Z" fill="#393939"/>
<path d="M33.0291 5H24.3391C23.2491 5 22.3691 5.88 22.3691 6.97V12.76C22.3691 13.85 23.2491 14.73 24.3391 14.73H27.1991V16.14C27.1991 16.43 27.4291 16.66 27.7191 16.66C27.8591 16.66 27.9891 16.61 28.0891 16.51L29.8691 14.73H33.0291C34.1191 14.73 34.9991 13.85 34.9991 12.76V6.97C34.9991 5.88 34.1191 5 33.0291 5ZM27.7191 13.69H24.3391C23.8291 13.69 23.4091 13.28 23.4091 12.76V6.97C23.4091 6.46 23.8191 6.04 24.3391 6.04H33.0291C33.5391 6.04 33.9591 6.45 33.9591 6.97V12.76C33.9591 13.27 33.5491 13.69 33.0291 13.69H29.6491C29.5091 13.69 29.3791 13.74 29.2791 13.84L28.2391 14.88V14.21C28.2391 13.92 28.0091 13.69 27.7191 13.69Z" fill="#393939"/>
<path d="M28.4206 9.41993H30.1306C30.2706 9.41993 30.4006 9.35993 30.5006 9.26993L31.0606 8.70993V9.41993H32.1106V7.44993C32.1106 7.15993 31.8806 6.92993 31.5906 6.92993H29.6206V7.97993H30.3306L29.9306 8.37993H28.2206C28.0806 8.37993 27.9506 8.42993 27.8506 8.52993L25.8906 10.4899L26.6306 11.2299L28.4306 9.41993H28.4206Z" fill="#393939"/>
<path d="M33.0695 11.7599H32.0995V9.82993H31.0495V11.7599H30.1595V10.3099H29.1095V11.7599H28.2195V10.7899H27.1695V11.7599H25.3195V6.92993H24.2695V12.2799C24.2695 12.5699 24.4995 12.7999 24.7895 12.7999H33.0295V11.7599H33.0695Z" fill="#393939"/>
<path d="M12.28 16.66C12.57 16.66 12.8 16.43 12.8 16.14V14.73H15.66C16.75 14.73 17.63 13.85 17.63 12.76V6.97C17.63 5.88 16.75 5 15.66 5H6.97C5.88 5 5 5.88 5 6.97V12.76C5 13.85 5.88 14.73 6.97 14.73H10.13L11.91 16.51C12.01 16.61 12.14 16.66 12.28 16.66ZM16.58 12.76C16.58 13.27 16.17 13.69 15.65 13.69H12.27C11.98 13.69 11.75 13.92 11.75 14.21V14.88L10.71 13.84C10.61 13.74 10.48 13.69 10.34 13.69H6.97C6.46 13.69 6.04 13.28 6.04 12.76V6.97C6.04 6.46 6.45 6.04 6.97 6.04H15.66C16.17 6.04 16.59 6.45 16.59 6.97V12.76H16.58Z" fill="#393939"/>
<path d="M11.8403 7.50993V6.92993H10.7903V7.50993C10.4303 7.63993 10.1403 7.90993 9.97031 8.25993C9.80031 8.61993 9.78031 9.01993 9.91031 9.38993C10.1203 9.97993 10.6803 10.3799 11.3103 10.3799C11.5503 10.3799 11.7503 10.5799 11.7503 10.8199C11.7503 11.0599 11.5503 11.2599 11.3103 11.2599C11.0703 11.2599 10.8703 11.0599 10.8703 10.8199V10.7799H9.82031V10.8199C9.82031 11.4399 10.2103 11.9899 10.7903 12.2099V12.7899H11.8403V12.2099C12.4203 11.9899 12.8003 11.4399 12.8103 10.8199C12.8103 9.99993 12.1403 9.32993 11.3203 9.32993C11.0803 9.32993 10.8803 9.12993 10.8803 8.88993C10.8803 8.64993 11.0803 8.44993 11.3203 8.44993C11.5603 8.44993 11.7603 8.64993 11.7603 8.88993V8.92993H12.8103V8.88993C12.8103 8.26993 12.4203 7.71993 11.8403 7.49993V7.50993Z" fill="#393939"/>
</svg>
