<svg width="94" height="94" viewBox="0 0 94 94" fill="none" xmlns="http://www.w3.org/2000/svg">
<path d="M21.9332 61.8834C16.7491 61.8834 12.5332 66.0993 12.5332 71.2834C12.5332 76.4676 16.7491 80.6834 21.9332 80.6834C27.1173 80.6834 31.3332 76.4676 31.3332 71.2834C31.3332 66.0993 27.1172 61.8834 21.9332 61.8834ZM21.9332 77.55C18.4771 77.55 15.6666 74.7394 15.6666 71.2834C15.6666 67.8273 18.4772 65.0168 21.9332 65.0168C25.3892 65.0168 28.1998 67.8275 28.1998 71.2834C28.1998 74.7394 25.3892 77.55 21.9332 77.55Z" fill="#393939"/>
<path d="M75.1998 61.8834C70.0157 61.8834 65.7998 66.0993 65.7998 71.2834C65.7998 76.4676 70.0157 80.6834 75.1998 80.6834C80.3839 80.6834 84.5998 76.4676 84.5998 71.2834C84.5998 66.0993 80.3839 61.8834 75.1998 61.8834ZM75.1998 77.55C71.7437 77.55 68.9332 74.7394 68.9332 71.2834C68.9332 67.8273 71.7438 65.0168 75.1998 65.0168C78.656 65.0168 81.4664 67.8275 81.4664 71.2834C81.4664 74.7394 78.656 77.55 75.1998 77.55Z" fill="#393939"/>
<path d="M93.7507 53.2025L79.6507 31.2691C79.3624 30.8209 78.8658 30.5499 78.333 30.5499H61.0998C60.2334 30.5499 59.5332 31.2518 59.5332 32.1165V71.2831C59.5332 72.1495 60.2334 72.8497 61.0998 72.8497H67.3664V69.7164H62.6664V33.6833H77.4777L90.8664 54.5106V69.7167H83.033V72.8499H92.433C93.2994 72.8499 93.9996 72.1497 93.9996 71.2833V54.0499C93.9998 53.7507 93.9137 53.4545 93.7507 53.2025Z" fill="#393939"/>
<path d="M68.934 50.9167V39.95H81.4674V36.8167H67.3674C66.501 36.8167 65.8008 37.5185 65.8008 38.3833V52.4833C65.8008 53.3496 66.501 54.0499 67.3674 54.0499H90.8674V50.9165H68.934V50.9167Z" fill="#393939"/>
<path d="M61.1 19.5834H1.56661C0.701879 19.5834 0 20.2853 0 21.15V71.2834C0 72.1498 0.701879 72.85 1.56661 72.85H14.1V69.7166H3.13339V22.7166H59.5334V69.7166H29.7666V72.85H61.1C61.9664 72.85 62.6666 72.1498 62.6666 71.2834V21.15C62.6666 20.2853 61.9664 19.5834 61.1 19.5834Z" fill="#393939"/>
<path d="M10.9664 63.4501H1.56641V66.5835H10.9664V63.4501Z" fill="#393939"/>
<path d="M59.5338 63.45H32.9004V66.5833H59.5338V63.45Z" fill="#393939"/>
<path d="M92.4326 63.4501H86.166V66.5835H92.4326V63.4501Z" fill="#393939"/>
<path d="M61.1 25.85H6.2666V28.9834H61.1V25.85Z" fill="#393939"/>
<path d="M23.4996 69.7166H20.3662V72.8499H23.4996V69.7166Z" fill="#393939"/>
<path d="M76.7672 69.7166H73.6338V72.8499H76.7672V69.7166Z" fill="#393939"/>
<path d="M28.2 13.3167H6.2666V16.45H28.2V13.3167Z" fill="#393939"/>
<path d="M3.13339 13.3167H0V16.45H3.13339V13.3167Z" fill="#393939"/>
</svg>
