<svg width="75" height="87" viewBox="0 0 75 87" fill="none" xmlns="http://www.w3.org/2000/svg">
<path fill-rule="evenodd" clip-rule="evenodd" d="M64.9126 15.8982L54.7413 21.7986L37.5 11.7977L20.3425 21.7484L10.1729 15.8496L37.5 0L64.9126 15.8982ZM72.3906 66.7632L37.5 87L2.52063 66.7113L12.6919 60.8141L37.5 75.2024L62.2194 60.8644L72.3906 66.7632ZM75 62.35V21.75L70.0232 18.863L69.2556 19.3085L59.852 24.7618L56.1524 26.9068L56.0621 26.7513L37.3613 37.5963L15.19 24.7375L15.2319 24.7132L5.06064 18.8144L0 21.75V62.2463L10.1713 56.3475V33.7129L37.242 49.4134L37.3613 49.4831L37.4823 49.4134L64.8287 33.5525V56.4512L75 62.35Z" fill="#E8AD3A"/>
</svg>
